<?xml version="1.0" standalone="no"?>
<!DOCTYPE svg PUBLIC "-//W3C//DTD SVG 1.1//EN" "http://www.w3.org/Graphics/SVG/1.1/DTD/svg11.dtd">
<svg xmlns="http://www.w3.org/2000/svg">
<metadata>Generated by Fontastic.me</metadata>
<defs>
<font id="uib-services-icons" horiz-adv-x="512">
<font-face font-family="uib-services-icons" units-per-em="512" ascent="480" descent="-32"/>
<missing-glyph horiz-adv-x="512" />

<glyph unicode="&#97;" d="M292 353l74 0-9-81-65 0 0-235-97 0 0 235-49 0 0 81 49 0 0 49c0 35 8 61 24 79 17 18 44 26 81 26l65 0 0-81-40 0c-8 0-14 0-18-2-5-1-8-3-10-6-2-4-3-7-4-10 0-3-1-8-1-14z"/>
<glyph unicode="&#98;" d="M481 395c-13-18-28-34-46-47 0-3 0-7 0-12 0-25-3-50-11-74-7-25-18-49-33-71-14-23-32-43-52-61-21-17-45-31-74-41-29-11-60-16-92-16-52 0-99 14-142 42 7-1 14-2 22-2 43 0 81 14 115 40-20 0-38 6-54 18-16 12-27 27-33 46 7-1 13-2 18-2 8 0 16 1 24 4-21 4-39 15-53 31-14 17-21 37-21 59l0 1c13-7 27-11 42-11-13 8-23 19-30 32-8 14-11 29-11 44 0 17 4 33 12 47 23-28 51-51 84-68 33-17 69-27 107-29-2 8-3 15-3 22 0 25 9 47 27 65 18 18 40 27 66 27 26 0 49-10 67-29 21 4 40 11 59 22-7-22-21-39-41-51 18 2 35 7 53 14z"/>
<glyph unicode="&#99;" d="M307 167c-21-1-19 10-7 26 28 38 81 90 83 127 3 48-45 64-96 63-34 0-70-10-95-19-84-30-138-77-171-130-35-53-24-103 51-105 58 3 95 18 134 39 0 0-108-31-147-9-5 3-9 6-10 15-1 19 31 38 48 44l0 32c36-13 78-9 114 18 2-3 3-8 2-11l6 0c2 12-7 24-20 25 4-3 7-5 8-8 0 0 0-1-1-1-47-33-92-17-96-16l26 25-7 19c51 18 95 32 165 44l-16 13 8 5c44-12 71-21 69-43 2 8 1 14-2 19 5-7 5-17-2-32-12-25-49-66-64-83-10-11-19-22-26-33-7-10-11-21-12-30 1-74 219 35 261 64-62-27-129-53-203-58z m44 175c0 0 1-1 1-1 0 0-1 1-1 1z"/>
<glyph unicode="&#100;" d="M180 194l-3 0-1-2-69-120-4-8 332 0 1 3 69 120 4 7z m178 31l2-3 3 0 138 1 8 0-4 7-160 278-2 2-2 0-139 0-8 0 4-8z m-115 141l-1 2-70 120-4 7-4-7-161-278-1-2 1-3 70-119 4-8 4 8 161 277z"/>
<glyph unicode="&#101;" d="M372 208c0 10-2 19-6 26-4 8-8 15-14 20-5 5-12 10-21 14-8 4-16 7-23 10-7 2-16 4-25 6l-30 7c-6 1-10 2-12 3-3 1-6 2-10 3-4 2-7 3-9 5-2 2-3 4-5 6-1 2-2 5-2 9 0 14 14 22 41 22 8 0 16-2 22-4 7-2 12-5 16-8 4-3 7-6 11-10 3-3 7-6 11-8 4-2 9-3 14-3 9 0 16 3 21 9 6 6 8 13 8 22 0 10-5 20-16 28-10 9-24 15-40 20-17 4-34 6-52 6-13 0-26-1-38-4-12-3-23-8-34-14-11-6-19-14-25-25-7-10-10-22-10-36 0-12 2-22 5-31 4-8 9-16 16-21 7-6 15-11 23-14 8-4 18-7 30-9l41-11c18-4 28-7 32-10 7-4 10-10 10-17 0-8-4-14-12-19-7-4-17-7-30-7-10 0-18 2-26 5-8 3-14 6-19 11-4 4-9 8-13 13-4 4-8 8-13 11-4 3-10 4-15 4-10 0-17-3-22-8-5-6-7-13-7-22 0-17 12-32 35-45 23-12 51-19 83-19 14 0 27 2 40 6 13 3 24 8 35 15 11 7 19 16 25 27 7 11 10 23 10 37z m103-62c0-30-10-56-32-77-21-22-47-32-77-32-25 0-47 7-67 22-15-3-29-4-43-4-27 0-53 5-78 16-25 10-46 25-64 43-18 18-33 39-43 64-11 25-16 51-16 78 0 14 1 28 4 43-15 20-22 42-22 67 0 30 10 56 32 77 21 22 47 32 77 32 25 0 47-7 67-22 15 3 29 4 43 4 27 0 53-5 78-16 25-10 46-25 64-43 18-18 33-39 43-64 11-25 16-51 16-78 0-14-1-28-4-43 15-20 22-42 22-67z"/>
<glyph unicode="&#106;" d="M457 344c-5-1-33-28-52-46-19 75-77 115-174 114-11 0-38-10-54-20-45-27-80-76-117-112-17-17-33-34-50-50-24-49 27-76 56-55 13 13 27 27 41 41 27-79 112-146 215-101 48 21 84 72 119 108 20 19 63 61 66 70 12 33-17 58-50 51z m-195-163c-52-9-96 48-78 100 11 35 35 49 64 52 107 2 111-137 14-152z"/>
<glyph unicode="&#110;" d="M266 328c-22-2-44-4-65-11-44-13-67-43-66-87 0-39 23-65 63-70 25-2 49 2 70 19 6 5 11 10 17 14 8-9 16-18 25-27 5-6 10-6 16-1 11 10 22 19 33 29 6 5 7 9 1 15-12 15-17 32-17 51 1 35 1 70 0 104-1 27-15 47-39 58-38 16-76 16-113-1-26-11-41-31-47-58-2-9 0-12 9-13 13-2 26-4 39-5 7-1 11 1 13 8 4 21 25 32 45 29 13-2 23-10 25-22 1-10 1-21 2-31-2 0-3-1-3-1-3 0-5 0-8 0z m-1-101c-6-10-14-17-26-19-19-3-33 9-34 29-2 27 12 45 38 50 11 2 22 3 33 4 0-23 2-45-11-64z m121-78c-2-1-4-1-5-2-26-11-51-19-78-25-26-5-51-7-77-5-32 3-61 13-90 28-18 9-35 18-53 28-6 3-11 2-14-2-3-4-2-10 3-14 18-13 35-28 54-41 35-24 73-38 123-38 40 1 85 14 126 38 7 4 14 9 21 14 6 4 7 9 4 14-3 5-8 7-14 5z m38 39c-19 2-38 0-55-12-4-3-6-7-4-12 2-4 6-5 11-4 8 1 17 2 26 3 0 0 0 0 0 0 3 0 6 0 9 0 4 0 6-2 5-6-1-4-2-8-3-13-2-8-6-15-8-23 0-3 0-7 2-9 2-1 6-2 9-1 2 0 4 2 6 4 13 14 20 30 22 49 2 18-1 22-20 24z"/>
<glyph unicode="&#112;" d="M475 256c0-30-5-58-17-85-12-27-27-51-47-70-19-20-43-35-70-47-27-12-55-17-85-17-30 0-58 5-85 17-27 12-51 27-70 47-20 19-35 43-47 70-12 27-17 55-17 85 0 35 7 67 23 98 15 31 36 56 64 77 8 6 18 9 28 7 10-1 18-6 23-14 7-8 9-17 7-27-1-10-6-18-14-24-18-14-33-31-43-52-10-20-15-42-15-65 0-20 4-39 11-57 8-18 18-33 32-46 13-14 28-24 46-32 18-7 37-11 57-11 20 0 39 4 57 11 18 8 33 18 46 32 14 13 24 28 32 46 7 18 11 37 11 57 0 23-5 45-15 65-10 21-25 38-43 52-8 6-13 14-14 24-2 10 0 19 7 27 5 8 13 13 24 14 10 2 19-1 27-7 28-21 49-46 64-77 16-31 23-63 23-98z m-182 219l0-182c0-10-4-19-11-26-8-7-16-11-26-11-10 0-18 4-26 11-7 7-11 16-11 26l0 182c0 10 4 19 11 26 8 7 16 11 26 11 10 0 18-4 26-11 7-7 11-16 11-26z"/>
<glyph unicode="&#113;" d="M357 273l101 0 0-101-101 0z m-64-161c0-32 5-53 14-63 8-8 22-13 40-15 6 0 16 0 29 0l0-28-242 0 0 28c19 0 33 1 43 2 19 4 30 15 35 33 3 10 4 24 4 43l0 365c-41-1-73-14-96-41-23-25-36-63-41-114l-26 4 5 175 394 0 5-175-26-4c-5 51-19 89-41 114-23 27-56 40-97 41z m-240 161l101 0 0-101-101 0z"/>
<glyph unicode="&#117;" d="M213 225l0-186-195 26 0 160z m0 212l0-188-195 0 0 161z m281-212l0-225-259 36 0 189z m0 250l0-226-259 0 0 191z"/>
<glyph unicode="&#118;" d="M6 127c11 10 17 9 28 13 2 2 4 3 6 4 15 0 12 3 22 6 20-1 25 6 41 7 9 0 26 4 34 5 0 0 11 1 21 1 7 0 20 2 24 2 7 0 16 0 23-1 10 2 17 2 26 2 11-1 21-1 31-1 12-1 19-2 31-2 12 0 20-4 27-4 6 1 14-2 18-2 4 0 12-4 19-5 12 0 17-1 29-3 4-1 15-4 19-4 4 0 14-5 21-6 7 2 19-4 27-5 29-4 27-8 39-10 4 0 15 0 14-14-1-5-16-4-24-4-3 0-1 3-5 3-6 0-5 1-10 6-12 4-22 3-36 8-5 2-12 3-22 6-19 3-29 5-47 8-11 3-21 4-26 5-18 3-27 3-43 5-14 1-26 3-38 3-3 1-13 0-17 1-20 0-29-1-44-1-17 0-32 0-51-3-5 0-10-2-15-2-5-2-14-3-21-3-5 0-11-1-19-4-19-1-12-8-22-11-15-1-24-9-30-9-8 0-23-7-28-2 0 4-3 8-2 11m145 145c-1 0-2-2-3-2-7-3-4-21-5-27-1-6-2-12-2-18-3-23-5-33-5-54 1-4 0-7 1-9 9 1 16 1 28 2-1 1-1 3-1 7-1 6 1 16 2 29 1 5 2 9 3 15 2 10 1 18 2 25 1 4 1 9 0 13-1 9-8 8-10 10-2 5-6 9-10 9z m61 0c-6-6-3-21-3-28 0-12-3-35-1-56 2-4 2-7 3-11 2-7 14-5 13-11 0-2 6-1 13-1 1 7 1 8 0 10-2 2-3 4-3 6-1 10-1 38-1 37 0 9 0 16 0 26 0 0 2 2 2 4 0 3-1 5-1 8 2 2 3 9 3 13-1 1-1 2-2 4-4 4-10 4-14-1-2 0-8 1-9 0 0 0 0 0 0 0m80 11c-9-2-4-16-4-27-2-12-1-16 1-17 0-8-1-17-1-31 1-3 2-7 1-12 4-10 3-12 2-20 2-3 6-8 8-8 4 0 8 3 11 5 10 5 6 13 5 20 0 5 0 10 0 10 0 0 0 29-2 43 0 8 2 12 0 23 0 2-4 3-8 7-3 3-4 6-7 8-3 2-5 0-6-1m66-16c8-12 5-17 5-26 1-16 0-22 0-32 0-6 1-27 1-28 0-2 3-5 3-8 0-8-1-13 1-18 1-4 4-3 5-4 4 0 8 2 11 4 3 12 3 22 3 36 0 11 1 42 0 45-2 3-2 6-1 9-1 4-1 9-2 13 1 4 0 10-1 13-2 2-4 4-6 6-2 3-1 4-3 6-7 2-9 1-12 0-2-3-3-5-4-6-1-5-2-7 0-10m-85 136c-6 1-7-26-9-27-1 1-4 7-4 12 0 1 1 1 2 2-10-2-18-20-12-24 5-2 7-5 11-5 4-1 5 1 11 4 1-1 1-2 1-2 2 0 2-1 4 2 7-1 13 5 16 7-1 2-5 2-6 5 1 1 2 2 2 5-3 3-2 8-4 8-3-9-7-6-6-6 0-1 0 3-1 4 0 6 1 3 0 8-1 4-3 5-5 7m90-47c10 0 23-5 30-5 6 0 5-7 5-7 1-8 0-8-4-10 1-2-1-2 1-2 12-3 11 0 17-3 7-1 6-5 7-6 0-3 3-10-7-11 0-3-1-8-3-10-1-4-14-1-22 1-5 0-11-1-16-1-4 4-12 2-17 2-4 0-20-2-31 0-13-1-14-1-27-2-3 0-17 0-20 0-4 0-10-1-13-1-8-2-18-5-28-3-7-2-12-4-18-4-10-3-8 0-18-3-3-1-19-5-23-5-7 1-7-2-17-5-1 0-9-3-14-6-7-3-16-1-15 12 7 7 7 4 10 6 7 0 13 5 16 5 4 0 7 1 7 2-2 2-2 1-5 1-4 0-8-3-12-4-4-1-10-2-14-2-3-2-8-3-12-1-1 2-2 5-3 7 0 7 14 10 14 10 2 1 16 5 16 5 4 1 18 5 22 5 5 0 9-3 18 0 10 2 18 4 28 4 12 2 21 3 33 4 15 1 34 2 52 3 9 0 35 0 46 0 4 2 31 1 37 1 1 1 0 1-1 4-5 1-31 1-31 3-6 1-12 1-15 1-7 1-14 3-28 0-4 3-12 1-15 2-10 0-13-2-20-1-3 0-8 0-11-1-16 2-19 0-22-1-24-1-38-4-53-6-9-3-16-6-28-7-5 0-12-7-23-4-3 0-5 8-4 11 0 5 9 5 12 6 13 5 30 7 44 9 7 1 25 3 36 6 8 0 13 0 20 1 10 2 24 0 31 2 9 0 23 0 30 1 13-1 28-1 39-2z"/>
<glyph unicode="&#119;" d="M407 486l-125 0c-32 0-73-4-108-33-26-22-39-53-39-81 0-47 37-95 101-95 6 0 12 1 19 1-3-7-6-13-6-23 0-19 10-30 18-41-27-2-78-5-115-28-36-21-47-52-47-74 0-45 42-86 130-86 104 0 159 57 159 114 0 42-24 62-50 85l-22 17c-7 5-16 12-16 26 0 13 9 21 17 29 25 20 51 41 51 86 0 46-29 70-43 82l37 0z m-53-370c0-37-31-65-89-65-65 0-107 31-107 74 0 43 39 57 52 62 26 9 58 10 64 10 6 0 9 0 14-1 46-32 66-49 66-80z m-49 195c-9-10-26-17-41-17-52 0-75 67-75 108 0 15 3 32 13 45 10 12 26 19 42 19 50 0 77-67 77-111 0-11-2-30-16-44z"/>
<glyph unicode="&#120;" d="M413 310l-314 0c-3 0-6-3-6-7l0-225c0-3 3-6 6-6l314 0c3 0 6 3 6 6l0 225c0 4-3 7-6 7z m-211-191c-11 0-23 3-32 6-2 1-3 2-2 4l3 22c0 1 0 1 1 2 1 0 2 1 3 0 10-4 19-5 29-5 12 0 20 5 20 13 0 9-5 14-30 16-2 0-3 1-3 3l0 22c0 2 1 3 3 3 21 2 24 8 24 13 0 3 0 9-15 9-7 0-16-2-24-6-1-1-2-1-3 0-1 0-2 1-2 2l-3 22c0 1 1 3 2 3 10 5 22 7 37 7 26 0 44-12 44-30 0-14-7-24-21-31 12-4 25-13 25-31 0-27-22-44-56-44z m136 6c0-2-1-4-3-4l-27 0c-1 0-3 2-3 4l0 88-17-7c-1 0-2 0-3 0-1 1-2 2-2 3l-3 22c0 1 1 2 2 3l38 19c1 0 1 0 2 0l13 0c2 0 3-1 3-3l0-125z m75 286l-34 0 0-16c0-16-9-34-36-34-26 0-36 18-36 34l0 16-102 0 0-16c0-16-9-34-36-34-26 0-36 18-36 34l0 16-34 0c-3 0-6-3-6-6l0-66c0-4 3-7 6-7l314 0c3 0 6 3 6 7l0 66c0 3-3 6-6 6z m-244-29c11 0 15 4 15 13l0 32c0 9-4 13-15 13-11 0-15-4-15-13l0-32c0-9 4-13 15-13z m174 0c11 0 15 4 15 13l0 32c0 9-4 13-15 13-11 0-15-4-15-13l0-32c0-9 4-13 15-13z"/>
<glyph unicode="&#121;" d="M323 486l-202 0-89-410 118 0 29 136 85 0c81 0 148 50 166 135 21 96-48 139-107 139z m-88-195l-39 0 25 112 58 0c20 0 35-12 40-29-2 0-5 1-7 1l-58 0z m84 56c-7-31-36-55-65-56l14 61 52 0c0-2 0-3-1-5z m144-28c6 31 3 57-6 78 19-23 29-56 20-101-19-85-86-134-167-134l-85 0-29-136-118 0 5 22 99 0 29 136 85 0c81 0 148 50 167 135z"/>
<glyph unicode="&#122;" d="M422 104c-9 0-14-6-15-16l29 0c0 10-5 16-14 16z m-78-1c-7 0-15-5-15-21 0-9 1-23 15-23 14 0 15 14 15 24 0 11-5 20-15 20z m-281-2c-14 0-17-13-17-22 0-9 3-22 17-22 14 0 17 13 17 22 0 9-3 22-17 22z m112-36c0-5 3-10 8-10 6 0 12 3 17 8l0 17c-17-2-25-7-25-15z m-175 447l0-512 512 0 0 512z m63-471c-19 0-35 12-35 38 0 26 16 37 35 37 19 0 35-11 35-37 0-26-16-38-35-38z m88 57l-1 0c-8 0-17-1-20-7l0-48-19 0 0 72 18 0 0-9c3 5 12 10 20 10 0 0 1 0 2 0z m68-55l-16 0-2 7c-7-5-15-8-24-8-13 0-21 9-21 21 0 16 15 25 45 28l0 4c0 5-4 8-11 8-7 0-13-3-18-8l-12 7c6 9 17 14 30 14 19 0 29-8 29-21 0 0 0-52 0-52z m79 0l-19 0 0 47c0 8-2 12-9 12-5 0-11-2-17-7l0-52-19 0 0 70 16 2 1-9c9 7 16 10 25 10 14 0 22-8 22-23z m79 4c0-11-1-31-35-31-14 0-27 5-29 17l18 3c1-3 3-7 14-7 9 0 14 5 14 16l0 9 0 0c-3-6-8-11-19-11-16 0-29 12-29 36 0 24 13 37 28 37 14 0 19-6 21-9l1 8 16 0 0-68z m77 29l-47 0c0-13 6-20 17-20 7 0 12 3 16 9l14-8c-6-10-17-15-32-15-21 0-33 14-33 37 0 24 12 37 33 37 20 0 33-13 33-36 0-1-1-3-1-4z m8 63l-7 0 0-21-4 0 0 21-8 0 0 3 19 0 0-3z m31-21l-4 0 0 20 0 0-8-20-3 0-7 20 0 0 0-20-4 0 0 24 6 0 7-18 7 18 6 0z"/>
<glyph unicode="&#66;" d="M396 58l0 49 98 0 0-98-98 0z m-372 26c-1 2 0 3 0 2 1 0 1-1 0-3 0-1 0 0 0 1z m0 17c0 2 0 3 0 2 1-1 1-2 0-3 0-2 0-1 0 1z m10 11c0 2 0 3 1 2 0 0 0-2 0-3-1-1-1 0-1 1z m10 239l0 123 227 0 0-247-194 0 4 6c20 34 46 72 65 95l13 16-4 2c-2 2-4 3-4 3-3 0-33-39-49-63-10-15-25-40-30-52l-4-7-24 0 0 124z m45-349c-16 3-32 12-43 24-8 8-18 27-20 40-3 12-3 38-1 53 4 27 14 64 26 93 6 14 7 15 11 15 2 0 4-1 4-1 0 0-4-10-9-22-18-46-26-80-24-112 1-29 7-44 24-56 15-12 22-14 46-14 20 0 22 0 34 5 7 3 18 7 24 10 12 6 39 24 52 35 80 64 170 178 210 266 17 39 25 69 25 96 0 25-6 39-22 53-11 10-21 14-39 15l-15 1 1 4 0 5 16 0c26 0 41-7 56-23 15-17 22-34 24-61 2-45-15-106-48-163-48-83-122-168-189-216-51-36-107-54-143-47z"/>
<glyph unicode="&#67;" d="M189 59l65 196 147 8 17 48-147-7 38 112 164 7 17 51-433-17 27-9-22-7 70-1-53-12 46 0-123-376z m303 394l-14-41-164-5-34-92 18 0 28 80 164 7 18 51z m-86-202l-145-5-67-195-173-9-4-10 189 8 65 196 147 7 18 48-16 0z"/>
<glyph unicode="&#68;" d="M460 114l-53 6 6 46 53-6z m52 278l-90 11 1-207 39-6z m-180-36c-36 27-83 41-139 41-57 0-104-14-139-41-36-27-54-61-54-103 0-43 18-78 54-105 29-22 66-35 111-39l56 0c44 4 81 17 111 39 35 27 53 62 53 105 0 42-18 76-53 103z m-27-68l-27-6c-4-1-15-9-34-25-21-16-31-27-33-32l-1-14-1-9 3-22 36-1-1-11-59 0-52 0 2 10 17 1c8 0 14 1 15 3 1 1 2 8 2 21l0 7-1 15c-1 4-10 16-28 39-19 22-31 36-37 40l-33 5 0 10c1 1 20 1 54 0 24 1 44 1 60 0l-2-8-35-4c11-16 28-39 51-67 29 22 45 37 45 43l-30 5-2 10 50 0 48 0z"/>
<glyph unicode="&#69;" d="M0 412l0-48 48 0 0-263 61 0 0 311z m399 0l0-48 50 0 0-263 62 0 0 311z m-147 7c-52-1-94-53-61-108l0 0 22-30c-38-21-65-47-63-93 4-69 54-91 108-93 29 2 57 4 77 23l13-17 62 0c-13 16-26 34-39 51 26 29 26 70 25 109l-51 0c-1-22 3-60-7-65-18 24-36 48-53 71 25 20 47 42 46 78 4 51-27 71-72 74-2 0-5 0-7 0z m6-48c9 0 25 1 26-23-2-19-15-30-28-42-4 5-8 11-12 17-4 4-8 8-11 13-1 4 0 8 0 12-1 5 4 21 25 23z m-14-131l59-79c-7-10-22-16-45-17-19 1-50 7-53 41 0 24 22 44 39 55z"/>
<glyph unicode="&#71;" d="M465 174c-55 1-109 3-163 5 51-38 122-88 163-5z m-262 5c-52-2-104-4-156-5 47-84 110-34 163 5-2 0-4 0-7 0z m4 16c-65 43-134 80-202 117-19-57 25-120 86-121 40 0 81-1 122 0-2 1-4 2-6 4z m304 92c0 9-1 17-4 25-71-38-142-76-208-121 75 0 217-19 212 96 0 1 0 0 0 0z m-289-77c-38 83-86 162-143 233-21-21-41-48-42-78-2-38 28-63 57-83 18-13 37-25 56-36 15-8 68-29 72-36 0 0 0 0 0 0z m78 3c59 30 182 77 174 155-2 29-21 55-41 75-57-71-106-152-144-235 3 1 7 3 11 5 1 0 0 0 0 0z m-10 35c31 48 65 100 79 156 11 45-4 91-55 103-19 4-22 4-29-12-6-15-10-31-13-46-5-27-8-56-8-84-2-49 1-97 6-146 7 10 13 20 20 29 0 1 0 0 0 0z m-41 95c0 37-3 74-10 111-7 33-9 62-47 51-127-34 4-221 50-286 4 41 7 83 7 124z"/>
<glyph unicode="&#73;" d="M136 333l0-283-94 0 0 283z m6 88c0-14-4-26-14-35-10-9-23-14-39-14l0 0c-16 0-29 5-38 14-10 9-14 21-14 35 0 14 4 26 14 35 10 9 23 14 39 14 16 0 28-5 38-14 9-9 14-21 14-35z m333-208l0-163-94 0 0 152c0 20-3 35-11 47-8 11-20 17-36 17-12 0-22-4-30-10-9-7-15-15-19-25-2-5-3-13-3-23l0-158-94 0c1 76 1 138 1 185 0 47 0 76 0 85l-1 13 94 0 0-41 0 0c4 6 7 12 11 16 4 5 10 10 17 15 6 5 15 10 24 13 10 3 21 4 33 4 33 0 59-11 79-32 20-22 29-54 29-95z"/>
<glyph unicode="&#74;" d="M4 163c196 50 327 87 502 120 5 1 8 3 0 3l-303-5c1-13-12-30-40-47-14-9-46-26-160-69-1 0 0-2 1-2m320 68l-35-44c-5-6-14-17-27-17l-210-7c-1 0-1 1-1 1l272 69c1 0 1-1 1-2m47 113c27-1 26-18 13-34-5-7-7-10-12-16l-174-2c-24 22-69 39-97 49-5 2-2 2 2 2 27 0 253 1 268 1"/>
<glyph unicode="&#75;" d="M364 363c17 0 34-1 47-3 7-1 13-3 19-5 5-2 11-6 13-13 5-14-7-26-15-33-10-8-24-16-38-23-17-8-35-15-46-19 6-17 18-54 29-91 8-25 15-51 18-72 2-10 3-19 2-27 0-6-2-17-11-21-4-2-9-1-12 0-3 1-6 2-8 4-5 4-11 10-17 16-11 13-24 30-37 48-8 11-15 22-22 32l-7-100-60-54-11 135c-60-58-131-117-140-103-16 24 130 234 130 234-12-1-126 1-124 26 1 17 72 37 118 46l-13 172 130-27-8-124c18 1 46 3 63 2z m-64-11c-3 12-22 91-39 86-20-6-38-93-38-93-7 0-18-2-31-5l16-203c24 23 46 46 61 64 0 0 8-11 19-28 27-42 76-114 90-108 24 12-47 208-47 208 0 0 112 38 102 66-7 22-133 12-133 12z"/>
<glyph unicode="&#76;" d="M115 310l141-87-98-82-140 92z m282-159l0-30-140-84 0 0-1 0 0 0 0 0-140 84 0 30 42-27 98 81 0 1 0-1 1 1 0-1 98-81z m-239 327l98-81-141-87-97 77z m239-168l97-77-140-92-98 82z m-43 168l140-91-97-77-141 87z"/>
<glyph unicode="&#79;" d="M152 387l-74 0 93 94 0-76z m265 37c-8 14-50 30-71 30-22 0-56 0-56 0 0 0-18 32-60 32-42 0-39-18-39-34l0-65-19-20-88 0c0 0-25-17-25-52 0-36 11-159 85-171 87-13 102 27 102 32 0 21 1 52 1 52 0 0 25-49 64-49 39 0 61-22 61-45 0-23 0-42 0-42 0 0-1-27-24-27-23 0-49 0-49 0 0 0-15 13-15 30 0 17 7 22 16 22 10 0 17-1 17-1l0 36c0 0-73 0-73-56 0-56 38-70 69-70 30 0 50 0 50 0 0 0 90 11 90 190 0 178-28 195-36 208z m-90-159c0 0 5 29 22 29 17 0 40-39 40-39 0 0-53 10-62 10z"/>
<glyph unicode="&#80;" d="M51 370c0 19 4 37 13 52 9 15 18 26 29 33 10 7 22 13 35 18 13 4 23 7 29 7 6 1 10 1 13 1 0 0 118 0 118 0 0 0 0-2 0-2 0-7-14-13-40-18-10 0-16-1-20-3 14-7 23-17 28-29 5-12 7-29 7-49 0-35-11-62-35-81-13-13-19-22-19-28 0-6 8-17 25-32 36-31 54-62 54-92 0-47-20-80-60-99-23-11-48-17-76-17 0 0-2 0-2 0 0 0-3 1-3 1 0-1-1-1-2-1-8 0-17 1-27 2-10 2-23 6-39 11-15 5-28 15-38 29-9 14-14 32-14 53 0 20 5 38 16 52 11 14 25 23 43 29 17 5 32 9 45 11 12 2 24 3 36 3 0 0 1 0 1 0-6 8-10 16-12 24-3 9-4 15-4 20 0 0 1 7 1 7 0 0-8 0-8 0-21 0-40 6-56 16-25 15-38 42-38 82m190-232c-2 18-9 32-22 43-14 11-31 17-53 17 0 0-8 0-8 0-22-1-42-9-59-24-15-14-23-30-21-48 1-18 10-31 27-41 17-10 37-14 61-12 23 1 42 8 56 20 14 12 20 27 19 45m-31 256c-10 37-31 56-63 56-4 0-7-1-10-1-13-5-23-15-29-32-6-17-6-35-2-55 5-17 13-32 25-43 11-11 23-17 36-17 4 0 7 0 9 1 14 4 25 15 32 33 8 18 8 38 2 58m199-89c0 0 76 0 76 0 0 0 0-48 0-48 0 0-76 0-76 0 0 0 0-77 0-77 0 0-49 0-49 0 0 0 0 77 0 77 0 0-76 0-76 0 0 0 0 48 0 48 0 0 76 0 76 0 0 0 0 77 0 77 0 0 49 0 49 0 0 0 0-77 0-77"/>
<glyph unicode="&#81;" d="M512 309l0-227c0-12-4-23-13-32-9-9-20-13-33-13l-420 0c-13 0-24 4-33 13-9 9-13 20-13 32l0 227c8-9 18-17 29-25 69-47 116-79 142-98 11-8 20-15 26-19 7-4 16-9 27-14 12-4 22-7 32-7l0 0c10 0 20 3 32 7 11 5 20 10 27 14 6 4 15 11 26 19 33 23 80 56 142 98 11 8 21 16 29 25z m0 84c0-15-5-29-14-43-9-14-21-25-35-35-71-50-116-81-134-93-1-1-6-4-12-9-6-4-11-8-15-11-4-2-9-5-15-9-6-3-11-6-16-8-6-1-10-2-15-2l0 0c-5 0-9 1-15 2-5 2-10 5-16 8-6 4-11 7-15 9-4 3-9 7-15 11-6 5-11 8-12 9-18 12-43 30-75 52-33 23-52 36-59 41-12 8-23 19-33 33-11 14-16 27-16 39 0 15 4 27 12 37 8 10 19 15 34 15l420 0c13 0 23-5 32-14 9-9 14-19 14-32z"/>
<glyph unicode="&#82;" d="M28 153c3-5 6-10 10-14 7-9 16-17 25-24 19-15 42-26 65-33 27-9 55-14 83-16 32-3 65-3 98 1 30 3 60 9 88 20 25 10 48 24 68 42 5 5 10 10 14 16 4 4 7 10 7 16 1 7 0 14-2 21-1 7-3 15-5 22-1 3-2 6-2 8-8 33-19 64-34 94-13 25-29 49-47 70-18 20-38 37-61 50-12 6-25 12-39 16-7 2-14 4-22 5-2 1-4 1-5 1-3 0-5 0-8 0-5 0-9 0-14 0-2 0-4 0-6 0-2 0-4-1-6-1-4-1-8-1-12-2-7-2-14-4-21-7-14-6-28-13-40-22-24-16-45-38-63-61-19-25-34-53-46-82-12-31-20-63-26-96 0-4-1-8-1-13 0-2 0-4 0-7 0-1 0-1 0-2 1-1 1-2 2-2z m30 20c0 2 0 4 1 7 1 4 2 8 3 12 6 15 13 29 22 42 4 7 8 13 12 20 5 7 9 14 14 20 8 10 18 21 31 26 18 5 31-13 42-25 6-7 12-13 20-17 4-2 8-3 12-3 6 1 12 5 16 9 13 10 23 23 32 36 11 13 21 28 33 40 5 6 10 12 17 15 3 1 7 0 10-1 2-1 3-2 4-3 2-2 4-3 5-4 13-10 25-21 36-32 10-10 20-21 28-32 9-10 18-21 25-33 8-14 16-29 24-44 7-13 15-29 7-44 0-1 0-1-1-2-13-22-37-36-60-45-28-11-59-17-89-19-31-2-62-2-93 1-28 3-57 8-83 18-22 9-43 21-58 40-3 4-6 9-9 14 0 1-1 1-1 2 0 1-1 1 0 2z"/>
<glyph unicode="&#84;" d="M264 14c-60 0-115 22-157 58l-104-14 40 99c-14 31-22 66-22 102 0 135 109 245 243 245 135 0 244-110 244-245 0-136-109-245-244-245z m133 246l0 0c0 71-50 122-136 122l-93 0 0-246 92 0c87 0 137 53 137 124z m-135-63l-27 0 0 124 27 0c40 0 67-22 67-62l0 0c0-40-27-62-67-62z"/>
<glyph unicode="&#85;" d="M288 439c0 0 1 0 1 1 4 14-4 29-18 34-14 4-28-3-33-17 0 0 0-1-1-2 0 0 0 0 0 0l0 0c-9-25-86-227-86-227l-1 0-92 231c0 0 0 0 0 0l-1 3c-6 13-22 20-36 14-14-5-22-21-17-35 11-28 117-284 117-284l-7-16c-12-31-25-52-60-52-3 0-15 0-15 0-12 1-22-6-25-18-4-12 4-26 17-29 9-2 18-3 27-3 64 0 85 37 106 91 0 0 117 291 122 303 1 2 2 4 2 6z m144-286c-2 0-4 0-7 1l-3 2c-8 4-103 68-104 85 0 2 1 4 3 5 2 1 4 2 8 2 22 0 83-29 119-49 11-8 13-23 6-34-5-8-13-12-22-12m-103 195c-4 0-6 1-8 2-2 1-3 3-3 5 1 17 96 81 104 86l3 1c3 1 5 1 7 1 9 0 17-4 22-12 7-11 5-25-5-34-37-20-98-49-120-49m156-74l0 0c-1 0-124 0-134 20-1 2-1 4 1 6 9 14 122 25 131 25l3-1c12-2 20-12 21-23 1-13-8-25-21-27z"/>
<glyph unicode="&#86;" d="M509 291l-54 36 22 60-62 11-5 64-64-14-25 56-53-34-46 38-35-54-59 26-13-64-64-3 18-61-59-29 36-51-44-44 54-37-22-59 64-13 3-64 32 7 44 65c0 0-91 120 34 203 28 18 115 23 171 4 56-18 89-54 89-54l-50-78 34-30 48 22-37 51z m-147-98c-55 8-88 15-91 28-2 14 14 26 48 24 34-1 75-32 75-32l42 61c0 0-53 49-144 43-75-5-119-41-121-112-2-70 85-85 118-89 33-4 50-10 53-21 2-10-9-29-66-24-56 6-80 35-80 35l-39-62c0 0 49-45 161-43 66 1 116 35 127 94 10 50-27 89-83 98z"/>
<glyph unicode="&#87;" d="M157 26l0 174 2 3 5 0 1-1c19-32 55-50 98-50 73 0 147 53 147 172 0 96-56 162-137 162-50 0-90-21-114-61l-2-1-5 0-3 56-47 0c2-32 3-64 3-104l0-350z m0 320c0 6 2 14 5 24 10 45 49 76 93 76 59 0 101-51 101-125 0-78-41-129-103-129-44 0-81 29-93 72-2 7-3 15-3 25z"/>
<glyph unicode="&#88;" d="M364 114c58 36 97 102 97 176 0 115-92 208-205 208-113 0-205-93-205-208 0-114 92-207 205-207 17 0 33 2 48 6 20-36 49-61 112-49l0 35c0 0-40 11-52 39z m-2 149c0-35-11-66-29-89-22 24-58 43-102 41l0-41c0 0 30-1 51-37-8-2-16-3-24-3-58 0-105 57-105 129 0 9 0 44 0 54 0 71 47 129 105 129 57 0 104-58 104-129 0-10 0-45 0-54z"/>
<glyph unicode="&#90;" d="M404 251c40 0 72 32 72 72 0 39-32 72-72 72-40 0-73-33-73-72 0-40 33-72 73-72z m-98 51c0 36-29 65-65 65-36 0-65-29-65-65 0-36 29-65 65-65 36 0 65 29 65 65z m-213-77c33 0 59 26 59 59 0 32-26 58-59 58-32 0-58-26-58-58 0-33 26-59 58-59z m0-13c-37 0-64-33-64-66l0-23c0-3 3-6 6-6l117 0c3 0 6 3 6 6l0 23c0 33-28 66-65 66z m148 11c-41 0-72-37-72-74l0-25c0-4 3-7 7-7l130 0c3 0 6 3 6 7l0 25c0 37-30 74-71 74z m163 11c-46 0-80-40-80-82l0-27c0-4 3-8 7-8l145 0c4 0 7 4 7 8l0 27c0 42-34 82-79 82z"/>
<glyph unicode="&#49;" d="M128 73l256 0 0 73-256 0z m0 183l256 0 0 110-46 0c-7 0-14 2-19 8-5 5-8 12-8 19l0 46-183 0z m329-18c0 5-2 9-5 13-4 3-8 5-13 5-5 0-9-2-13-5-4-4-5-8-5-13 0-5 1-10 5-13 4-4 8-6 13-6 5 0 9 2 13 6 3 3 5 8 5 13z m37 0l0-119c0-3-1-5-3-7-2-1-4-2-6-2l-64 0 0-46c0-8-3-14-8-19-6-6-12-8-20-8l-274 0c-8 0-14 2-20 8-5 5-8 11-8 19l0 46-64 0c-2 0-4 1-6 2-2 2-3 4-3 7l0 119c0 15 6 28 16 38 11 11 24 17 39 17l18 0 0 155c0 8 3 14 8 19 6 6 12 8 20 8l192 0c7 0 16-1 25-5 9-4 16-9 22-14l43-43c5-6 10-13 14-22 4-9 6-18 6-25l0-73 18 0c15 0 28-6 39-17 10-10 16-23 16-38z"/>
<glyph unicode="&#50;" d="M434 433c-49 49-109 74-178 74-70 0-129-25-179-74-49-50-73-109-73-178 0-70 24-129 73-179 50-49 109-73 179-73 69 0 129 24 178 73 49 50 73 109 73 179 0 69-24 128-73 178z m-48-309c-36-36-79-54-130-54-51 0-95 18-131 54-36 36-54 80-54 131 0 51 18 94 54 130 36 36 80 55 131 55 51 0 94-19 130-55 36-36 54-79 54-130 0-51-18-95-54-131z m-194 240c-14 0-26-5-36-15-9-10-14-22-14-35 0-14 5-26 14-36 10-10 22-15 36-15 14 0 26 5 35 15 10 10 15 22 15 36 0 13-5 25-15 35-9 10-21 15-35 15z m127 0c-13 0-25-5-35-15-10-10-15-22-15-35 0-14 5-26 15-36 10-10 22-15 35-15 14 0 26 5 36 15 10 10 15 22 15 36 0 13-5 25-15 35-10 10-22 15-36 15z m-127-118c-14 0-26-5-36-15-9-9-14-21-14-35 0-14 5-26 14-36 10-10 22-15 36-15 14 0 26 5 35 15 10 10 15 22 15 36 0 14-5 26-15 35-9 10-21 15-35 15z m127 0c-13 0-25-5-35-15-10-10-15-21-15-36 0-13 5-25 15-35 10-10 22-15 35-15 15 0 26 5 36 15 10 10 15 22 15 35 0 15-5 26-15 36-10 10-21 15-36 15z"/>
<glyph unicode="&#48;" d="M440 409l-368 0c-7 0-13-6-13-13l0-27c0-1 1-2 2-3l194-110c0-1 1-1 1-1 1 0 2 0 2 1l188 110c1 1 3 2 5 3 1 1 2 1 2 3l0 24c0 7-6 13-13 13z m11-80c-1 1-2 1-3 0l-106-62c-1 0-1-1-2-2 0-1 1-2 1-3l106-115c1 0 2-1 3-1 0 0 1 1 1 1 1 0 2 1 2 3l0 177c0 1 0 2-2 2z m-140-83c-1 1-2 1-4 1l-42-25c-5-3-12-3-17-1l-37 22c-1 1-3 0-4-1l-142-131c-1-1-1-2-1-3 0-1 1-2 1-3 3-1 5-2 7-2l364 0c2 0 3 1 3 2 1 2 1 3 0 4z m-135 12c1 1 1 2 1 3 0 1-1 2-2 2l-111 64c-1 1-2 0-4 0-1-1-1-2-1-3l0-167c0-1 1-2 2-3 0 0 1 0 1 0 1 0 2 0 2 1z"/>
<glyph unicode="&#51;" d="M380 440l-247 0c-34 0-61-27-61-61l0-246c0-34 27-61 61-61l247 0c33 0 60 27 60 61l0 246c0 34-27 61-60 61z m-12-225c0-39-32-71-72-71l-82 0c-39 0-71 32-71 71l0 83c0 40 32 72 71 72l50 0c19-2 46-18 55-39 3-6 5-7 7-24 1-9 2-16 6-20 5-5 26-1 30-5l4-2 2-4 0-3z m-153 69l40 0c7 0 14 6 14 14 0 7-7 13-14 13l-40 0c-7 0-13-6-13-13 0-8 6-14 13-14z m81-54l-81 0c-7 0-13-6-13-14 0-7 6-13 13-13l81 0c7 0 13 6 13 13 0 8-6 14-13 14z"/>
<glyph unicode="&#52;" d="M420 323c-21 27-51 42-79 42-37 0-52-18-78-18-26 0-46 18-78 18-32 0-65-19-87-52-29-46-24-132 24-206 17-26 40-56 71-56 26 0 34 17 70 18 37 0 44-18 71-18 30 1 54 33 71 60 13 18 17 28 27 49-70 27-81 125-12 163z m-107 71c14 18 24 42 20 67-22-2-47-16-62-34-14-16-25-41-21-65 24 0 49 14 63 32z"/>
<glyph unicode="&#53;" d="M304 419l136-326 0 326z m-232 0l0-326 136 326z m124-261l64 0 26-65 57 0-87 206z"/>
<glyph unicode="&#54;" d="M474 317c0 2 0 4 0 6-2 0-4 0-5 0-36 0-71 0-107 0-4 0-5-1-5-5 0-40 0-80 0-120 0-5 1-6 6-6 20 1 40 0 61 0 1 0 3 0 5 0 0-6 0-11 0-16 0-4-1-5-5-5-20 0-41 0-62 0-4 0-5-1-5-5 0-8 0-15 0-23 0-4 1-5 5-5 36 0 71 0 106 0 5 0 6 2 6 6 0 58 0 115 0 173z m-49-92c-6 0-13 0-19 0-3 0-4 1-4 4 0 19 0 38 0 57 0 2 1 4 2 4 8 0 16 0 25 0 0-4 0-7 0-11 0-17 0-33 0-49 0-4-1-5-4-5z m-87 98c-35 0-71 0-106 0-4 0-5-1-5-5 0-40 0-80 0-120 0-4 1-6 5-6 20 1 41 0 61 1 5 0 6-2 6-6 0-4 0-8 0-11 0-4-1-5-5-5-20 0-41 0-62 0-1 0-3 0-5 0 0-10 0-19 0-28 0-4 1-5 5-5 35 0 71 0 106 0 2 0 3 0 5 0 0 2 0 4 0 5 0 58 0 117 1 175 0 4-2 5-6 5z m-39-95c0-1-2-3-3-3-7 0-15 0-22 0-1 0-2 2-2 3-1 20 0 41 0 62 8 0 16 0 24 0 1 0 3-2 3-3 0-19 0-39 0-59z m-189 141c0-13 0-26 0-40 0-6 0-6-6-6-21 0-41 0-61 0-4 0-5-1-5-5 0-44 0-88 0-132 0-4 1-5 5-5 36 0 71 0 107 0 1 0 3 0 4 0 0 65 0 129 0 193-14 0-29 0-44 0 0-2 0-4 0-5z m-5-155c-6 0-12 0-18 0-2 0-4 1-4 2 0 25 0 49 0 74 9 0 18 0 27 0 0-2 0-3 0-5 0-22 0-44 0-66 0-4-1-6-5-5z m104 109c-12 0-24 0-36 0-4 0-4-1-4-5 0-13 0-25 0-38 0-31 0-63 0-94 0-4 0-5 4-5 5 0 10 0 14 0 9 0 17 0 26 0 0 1 0 2 0 2 0 46 0 91 0 137 0 3-1 3-4 3z m-37 17c13 0 25 0 38 0 2 0 3 1 3 4 0 4 0 8 0 13 0 5 0 11 0 17-15 0-29 0-44 0 0-11 0-21 0-31 0-1 2-3 3-3z"/>
<glyph unicode="&#55;" d="M314 157l0-61c0-12-4-19-11-19-5 0-9 2-13 6l0 86c4 5 8 7 13 7 7 0 11-7 11-19z m97-1l0-13-26 0 0 13c0 13 4 20 13 20 8 0 13-7 13-20z m-276 63l30 0 0 26-89 0 0-26 30 0 0-163 29 0z m82-163l25 0 0 141-25 0 0-108c-6-8-11-12-16-12-4 0-6 2-6 6-1 1-1 4-1 10l0 104-25 0 0-112c0-9 1-16 2-20 2-7 8-11 17-11 9 0 19 6 29 17z m122 42l0 57c0 13 0 23-2 28-3 11-10 16-20 16-10 0-19-5-27-16l0 62-25 0 0-189 25 0 0 14c9-11 17-16 27-16 10 0 17 5 20 16 2 5 2 14 2 28z m97 3l0 4-26 0c0-10 0-16-1-18-1-6-5-10-11-10-9 0-13 7-13 20l0 25 51 0 0 29c0 15-3 26-8 33-7 10-17 15-30 15-13 0-23-5-31-15-5-7-8-18-8-33l0-49c0-15 3-26 9-33 7-10 17-15 31-15 13 0 24 5 30 15 4 5 6 10 6 16 1 1 1 7 1 16z m-174 261l0 60c0 13-4 20-12 20-8 0-12-7-12-20l0-60c0-13 4-20 12-20 8 0 12 7 12 20z m206-215c0-44-3-77-8-100-2-11-8-20-16-28-9-7-18-12-29-13-35-4-88-6-159-6-71 0-124 2-159 6-11 1-20 6-29 13-8 8-14 17-16 28-5 22-8 55-8 100 0 45 3 78 8 100 2 12 8 21 16 29 9 7 18 12 30 13 35 4 87 6 158 6 71 0 124-2 159-6 11-1 20-6 29-13 8-8 14-17 16-29 5-21 8-54 8-100z m-285 365l29 0-35-114 0-77-28 0 0 77c-3 14-9 34-18 61-7 19-13 37-18 53l30 0 20-75z m105-95l0-50c0-16-2-27-8-34-7-10-17-14-30-14-13 0-23 4-30 14-5 7-8 19-8 34l0 50c0 15 3 26 8 33 7 10 17 15 30 15 13 0 23-5 30-15 6-7 8-18 8-33z m96 46l0-142-26 0 0 15c-10-12-20-17-29-17-9 0-15 3-17 10-2 5-3 12-3 22l0 112 26 0 0-105c0-6 1-9 1-10 0-4 2-6 6-6 5 0 10 4 16 12l0 109z"/>
<glyph unicode="&#56;" d="M225 321c-1-3-26-46-73-130-5-9-11-13-19-13l-68 0c-4 0-7 2-9 5-2 3-2 7 0 10l73 128c0 0 0 0 0 0l-46 80c-3 4-3 8-1 11 2 3 5 4 9 4l69 0c7 0 14-4 19-13z m231 184c2-3 2-7 0-11l-151-267 0 0 96-176c2-3 2-7 0-10-2-3-5-4-9-4l-68 0c-8 0-15 4-19 12l-97 178c3 6 54 96 152 269 4 9 11 13 18 13l69 0c4 0 7-1 9-4z"/>
<glyph unicode="&#57;" d="M221 475l63 0 0-110 104 0 0-69-104 0 0-113c0-26 1-42 4-49 2-7 7-13 15-17 9-6 20-9 33-9 22 0 44 7 66 22l0-69c-19-10-36-16-51-19-14-4-31-5-49-5-20 0-38 2-53 7-15 5-28 12-40 22-11 9-18 19-22 30-4 10-6 25-6 46l0 154-49 0 0 62c17 5 32 13 44 24 12 10 22 23 30 37 7 15 12 34 15 56z"/>
<glyph unicode="&#33;" d="M389 256c0 9-1 17-3 26 0 0 90 0 90 0 0 0 0-177 0-177 0-19-6-35-20-49-13-13-29-20-48-20 0 0-304 0-304 0-19 0-35 7-48 20-14 14-20 30-20 49 0 0 0 177 0 177 0 0 89 0 89 0-1-11-2-20-2-26 0-36 13-67 39-94 26-26 57-39 94-39 36 0 67 13 94 39 26 27 39 58 39 94m19 220c19 0 35-6 48-20 14-13 20-29 20-48 0 0 0-75 0-75 0 0-111 0-111 0-27 37-63 56-109 56-47 0-83-19-109-56 0 0-111 0-111 0 0 0 0 75 0 75 0 19 6 35 20 48 13 14 29 20 48 20 0 0 304 0 304 0m32-85c0 0 0 37 0 37 0 8-4 12-12 12 0 0-37 0-37 0-8 0-12-4-12-12 0 0 0-37 0-37 0-3 1-5 3-8 3-3 6-4 9-4 0 0 37 0 37 0 8 0 12 4 12 12m-102-135c0-23-8-42-24-58-16-16-35-24-58-24-23 0-42 8-58 24-16 16-24 35-24 58 0 23 8 43 24 58 16 16 35 24 58 24 23 0 42-8 58-24 16-15 24-35 24-58"/>
<glyph unicode="&#34;" d="M0 412l0-48 48 0 0-263 61 0 0 311z m399 0l0-48 50 0 0-263 62 0 0 311z m-147 7c-52-1-94-53-61-108l0 0 22-30c-38-21-65-47-63-93 4-69 54-91 108-93 29 2 57 4 77 23l13-17 62 0c-13 16-26 34-39 51 26 29 26 70 25 109l-51 0c-1-22 3-60-7-65-18 24-36 48-53 71 25 20 47 42 46 78 4 51-27 71-72 74-2 0-5 0-7 0z m6-48c9 0 25 1 26-23-2-19-15-30-28-42-4 5-8 11-12 17-4 4-8 8-11 13-1 4 0 8 0 12-1 5 4 21 25 23z m-14-131l59-79c-7-10-22-16-45-17-19 1-50 7-53 41 0 24 22 44 39 55z"/>
<glyph unicode="&#35;" d="M307 167c-21-1-19 10-7 26 28 38 81 90 83 127 3 48-45 64-96 63-34 0-70-10-95-19-84-30-138-77-171-130-35-53-24-103 51-105 58 3 95 18 134 39 0 0-108-31-147-9-5 3-9 6-10 15-1 19 31 38 48 44l0 32c36-13 78-9 114 18 2-3 3-8 2-11l6 0c2 12-7 24-20 25 4-3 7-5 8-8 0 0 0-1-1-1-47-33-92-17-96-16l26 25-7 19c51 18 95 32 165 44l-16 13 8 5c44-12 71-21 69-43 2 8 1 14-2 19 5-7 5-17-2-32-12-25-49-66-64-83-10-11-19-22-26-33-7-10-11-21-12-30 1-74 219 35 261 64-62-27-129-53-203-58z m44 175c0 0 1-1 1-1 0 0-1 1-1 1z"/>
<glyph unicode="&#36;" d="M332 335c-6 0-12-1-17-4-5-3-10-6-14-11l-31-39-7 37c-1 3-2 5-3 7-2 2-4 4-6 5-2 2-4 3-7 4-3 1-5 1-8 1l-49 0c-1 0-3 0-6 0-2 0-5-1-9-2-4-1-9-3-14-6-5-3-10-8-16-14l-58-62-73-79 60 0 33 36 45 0-11-36 49 0 34 113 14-77 11 0 63 75-34-111 49 0 37 124 41 0-37-124 48 0 38 124 41 0 16 39z m-168-89l-21 0 30 32z m-161-21l50 0 9 10-59 0z m0 16l65 0 9 10 2 2-76 0z m0 18l81 0 13 14-94 0z m0-49l36 0 7 8-43 0z m0-13l23 0 6 6-29 0z m0 101l117 0 15 15c0 0 1 1 2 2l-134 0z m16 37c-8 0-16-8-16-16l0 0 137 0c4 3 7 6 10 8 5 4 3 3 6 5 5 3 7 3 7 3 0 0-144 0-144 0z m-16-162l15 15-15 0z m0 105l99 0 14 15-113 0z"/>
<glyph unicode="&#37;" d="M200 355c6-14 11-28 16-42 0 0 0 0 0 0 4 10 24 8 36 6 5 0 9-1 14-1-8 22-15 43-23 65-10 29-19 60-31 88-6 15-13 41-35 41-6-3-10-4-13-11-5-12 0-33 3-44 9-36 21-69 33-102z m179-1c11 32 21 63 31 96 5 17 13 51-14 50-3-1-6-2-8-3-14-10-22-32-28-49-18-44-31-90-47-134l0-1c16-2 32-5 48-8 6 16 12 33 18 49z m35-98c-8 12-25 17-41 22-36 12-77 18-125 18-2 0-4-1-6-1-5-1-10-2-12-5-11-14 1-37 10-44 22-17 63-20 102-20 20 0 36 4 37-16-2-3-5-4-8-6-12-7-27-11-39-18-28-14-54-44-61-78-4-17 1-33 5-45 3-8 6-17 5-27-10 0-17 6-21 12-12 14-16 35-16 62-8-7-15-5-26-3 2-7 4-16 2-23-5-18-26-32-50-25-25 7-43 25-55 45-6 11-9 23-3 36 0 0 0 1 1 1 16-17 26-40 48-51 11-6 28-3 32 8 1 3 0 8-1 10-4 8-8 15-13 22-7 12-16 21-24 32-6 8-14 17-23 23-13 8-26-1-32-9-5-6-9-13-12-21-7-28 9-58 19-74 24-38 52-61 101-74 16-5 44-7 64-3 12 2 24 4 34 8 53 20 88 59 107 112 4 12 6 23 9 36 5 27 5 77-8 96z m-269-33c13-26 30-50 50-70 7-7 15-14 24-19 4-2 11-3 16-1 18 9 8 33 2 48-12 29-26 56-45 79-6 7-15 16-29 16-2-1-5-1-7-2-8-5-22-18-18-34 1-6 4-12 7-17z m124-59c1 1 3 3 4 5 5 5 10 10 14 15 5 4 10 7 14 11 3 2 5 4 8 6l0 0c-7 1-15 1-23 2-7 1-14 3-21 4-5 2-10 3-15 5 6-11 11-23 15-36 1-4 3-8 4-12z"/>
<glyph unicode="&#38;" d="M282 313c-46 0-80-35-80-79 0-46 36-79 80-79 44 0 80 33 80 79 0 44-35 79-80 79z m0-42c19 0 35-17 35-37 0-21-16-38-35-38-20 0-36 17-36 38 0 20 16 37 36 37z m227-89c0-15-12-27-27-27-16 0-28 12-28 27 0 16 12 28 28 28 15 0 27-12 27-28z m-80-22l-44 0 0 196 44 0z m-306 196l-41 0-79-196 55 0 9 28 69 0 9-28 56 0z m-41-128l20 66 21-66z"/>
<glyph unicode="&#39;" d="M508 503c-3 3-6 5-10 5-2 0-4-1-6-2-70-38-151-59-235-59-84 0-165 21-236 59-1 1-3 2-5 2-4 0-8-2-10-5-3-5-3-12 2-16 36-27 74-47 116-61 43-15 87-22 133-22l0 0c45 0 90 7 133 22 41 14 80 34 115 61 6 4 6 11 3 16z m-81-110c-2 2-4 2-6 2-1 0-2 0-3 0-21-8-41-14-60-18-4-1-7-4-9-8-13-37-48-73-85-111-2-1-4-3-7-3-4 0-6 2-7 3-37 38-72 74-86 111-1 4-4 6-8 7-19 5-40 11-60 19-1 0-2 0-3 0-2 0-4 0-6-2-3-2-4-5-4-8 3-31 16-62 38-94 21-30 49-58 75-85 49-50 95-97 99-151 0-5 4-9 9-9l58 0c2 0 5 1 7 3 1 2 2 4 2 7-2 36-15 73-42 111-5 8-11 16-18 24-2 3-1 7 1 9 2 2 4 4 6 6 26 27 54 55 75 85 22 32 34 63 37 94 1 3-1 6-3 8z m-232-230c-1 2-3 3-6 3-5 0-7-3-8-4-24-37-37-71-38-106-1-3 0-5 2-7 2-2 4-3 7-3l57 0c5 0 9 4 10 9 1 16 6 33 16 51 3 6 0 12-2 14-9 12-20 26-38 43z m62 202c18 0 28 1 32 1 4 0 9-3 9-8 0-2-1-3-1-4-2-6-13-29-34-49-2-2-4-2-6-2l0 0c-2 0-5 0-7 2-20 20-31 43-33 49-1 1-1 2-1 4 0 5 4 8 9 8 3 0 14-1 32-1z"/>
<glyph unicode="&#40;" d="M473 146c1 5 1 4 0 10 3-2 7-4 11-5 2 6 3 13 5 20-9 4-4 9-10 14-5 2-10 4-15 6-15 20-15 49-11 71-3 5-6 10-10 14l0 2c25 4 60 15 49 49-5 14-17 21-21 38 1 2 2 4 3 6 2 3 5 6 7 8l0 1c-33-3-29-28-24-54l-6-7c-10 0-20 0-31-1-26 20-40 44-50 80 9 15 13 28 6 47-2 2-4 3-6 5 0-13-5-17-13-21-13 20-20 42-41 54-49 30-145-22-171-48-9-9-16-30-27-37-11-2-23-5-34-7-12-8-24-16-35-23-24 8-33 36-9 50 7 5 53 28 58 30 9-2 18-3 27-4 29 5 43 33 26 60-2 0-4 0-6 1 1-2 2-4 3-5 0-4 0-7 1-10-12-12-23-10-41-17-11-5-11-20-21-27-22-14-57-12-73-31-23-28 2-55 27-63 10-15-4-48 4-71 10-34 34-54 53-80-18-26 19-59 38-69 0-15 2-26 5-37 21-1 35 0 50 6 1 2 1 4 2 6-3 6-34 51-38 54-9 7-18 6-24 16 10 13 15 21 14 46 10-5 18-11 32-13 0-1 1-1 1-2-6-3-8-8-10-14 0-13 44-49 53-68 10-19-3-39 17-52 18-12 59-8 67 9 9 21-13 44-22 54 26 0 51 2 69 10 5 14 2 26-4 38 8-2 16-4 24-5 5-8 6-21 4-33 17-9 44-31 71-23 1-3 3-7 4-10-6-4-13-1-20 1 1-8 3-17 5-25l21 0c2-5 3-11 4-16 10 3 20 5 29 7-2 4-5 9-7 14 34 3 22 50-10 51z m-162 27c-12-7-26 7-37 12-7-5-12-12-12-24-9 4-12 9-26 9-3 6-3 7-2 16 25 0 52 2 72 9 4-5 5-13 8-20-1-1-2-1-3-2z m167-58c-2 0-3-1-4-1-1 4-2 8-3 12 2 0 4 0 5-1 2-1 4-3 5-5-1-2-2-3-3-5z"/>
<glyph unicode="&#41;" d="M264 14c-60 0-115 22-157 58l-104-14 40 99c-14 31-22 66-22 102 0 135 109 245 243 245 135 0 244-110 244-245 0-136-109-245-244-245z m133 246l0 0c0 71-50 122-136 122l-93 0 0-246 92 0c87 0 137 53 137 124z m-135-63l-27 0 0 124 27 0c40 0 67-22 67-62l0 0c0-40-27-62-67-62z"/>
<glyph unicode="&#42;" d="M189 59l65 196 147 8 17 48-147-7 38 112 164 7 17 51-433-17 27-9-22-7 70-1-53-12 46 0-123-376z m303 394l-14-41-164-5-34-92 18 0 28 80 164 7 18 51z m-86-202l-145-5-67-195-173-9-4-10 189 8 65 196 147 7 18 48-16 0z"/>
<glyph unicode="&#43;" d="M121 121l111 80-17 11z m370 306l0 1-471 0 0-347 1 0 0 0 69 0 0 0 331 0 0 0 70 0 0 346z m-70-16l-165-120-165 120z m-331-312l0 209-38 34 38-28 0 0 33-24 43-31 0 0 90-65 0 0 0-1 0 1 0 0 0 0 90 65 0 0 42 31 33 24 0 0 39 28-39-34 0-209z m190 102l111-80-93 91z"/>
<glyph unicode="&#44;" d="M83 270l0-36 27 0-2-4c-5-7-11-10-21-10-17 0-29 14-29 36 0 19 13 32 29 32 7 0 11-2 18-7l4-4 49 18-3 5c-16 21-40 34-72 33-51-1-83-36-79-82 3-44 36-73 83-72 21 1 36 6 49 16 4 3 7 7 10 10l9 65z m259-59l-15 118-61 0-21-72 0 0-21 72-61 0-8-59 9 0 0-9c0-23-6-42-18-56l-3-22 54 0 7 79 0 0 25-80 31 0 26 81 0 0 6-81 31 0z m93 49l47 69-62 0-15-32-16 32-61 0 47-68-33-50 4-29 38 0 21 40 21-40 61 0z m73 58c0-8-5-14-13-14l0 4c6 0 10 4 10 10 0 5-4 10-10 10l0 3c8 0 13-6 13-13z m-13-4c0 0 1 0 1-1 0 0 0-1 1-2l4 0c0 0-1 3-2 4-1 1-1 2-2 2 2 0 3 2 3 4 0 2-2 4-4 4l-1 0 0-3c1 0 1-1 1-1 0-1 0-2-1-2z m0-10c-7 0-13 6-13 14 0 7 6 13 13 13l0-3c-5 0-9-5-9-10 0-6 4-10 9-10z m0 21l-5 0 0-14 4 0 0 5c0 0 0 0 1-2l0 5c0 0 0 0 0 0l-1 0 0 3 1 0c0 0 0 0 0 0z"/>
<glyph unicode="&#45;" d="M180 194l-3 0-1-2-69-120-4-8 332 0 1 3 69 120 4 7z m178 31l2-3 3 0 138 1 8 0-4 7-160 278-2 2-2 0-139 0-8 0 4-8z m-115 141l-1 2-70 120-4 7-4-7-161-278-1-2 1-3 70-119 4-8 4 8 161 277z"/>
<glyph unicode="&#46;" d="M5 358c161 0 322 0 484 0 6 0 12 1 19 0 0-51 0-102 0-154-76-8-152-16-227-24-81-8-161-17-242-25-11 67-23 135-34 203m475-40c1-1 3-1 4-2 0-1 0-3 0-5l1 0c0 2 0 4 0 5 1 1 2 1 3 2-2-1-5 0-8 0m9-1c-1-1-1-2-1-4 1-3 1 2 3 3-1 0-1 1-2 1m6 0c-1 0-1-1-2-1 2-1 2-3 3-4 0 2 0 5-1 5m-4-1c0-1 1-1 1-1 0 0-1 0-1 1m2-1c0 0 0 0 0 1 0-1 0-1 0-1m-1 0c0 0 0 0 1 0l-1 0m-442-14c-14-14-13-39 2-52 12-12 33-12 46 0 10 7 14 20 12 31-13 0-26 0-39 0 0-4 0-9 0-14 6 0 13 0 19 0-3-5-9-9-16-9-9 1-16 10-16 19-1 8 6 16 14 18 6 1 13-2 17-6 7 0 13 0 20 0-3 8-9 15-17 19-13 8-31 5-42-6m144 10c-9-2-18-8-23-16-5-8-6-18-4-27 2-11 10-20 20-25 7-3 15-3 22-2 12 3 21 11 25 22 2 6 3 12 2 17-1 11-8 21-17 27-7 4-16 5-25 4m181 0c-12-2-22-12-26-23-2-6-2-12-2-18 2-12 10-22 20-27 7-3 14-3 21-2 11 2 21 9 25 18 4 7 5 15 4 22-2 11-8 20-17 26-8 4-17 5-25 4m-261-1c0-6 0-12 0-19 1-16 0-33 0-50 6 0 12 0 17 0 0 7 0 14 0 21 5-6 9-14 13-21 7 1 14 0 21 1-5 7-11 15-17 23 4 1 7 3 10 6 6 6 7 14 5 22-1 8-8 15-17 17-10 1-21 0-32 0m127 0c0-15 0-30 0-45 0-9 4-18 12-22 8-4 18-3 26 1 8 4 12 14 12 22 0 15 0 30 0 44-6 0-11 0-17 0 0-14 0-28 0-42 0-3 0-8-4-10-3-2-8-2-10 1-2 3-2 6-2 8 0 15 0 29 0 43-6 0-12 0-17 0m55 0c0-23 0-46 0-69 5 1 11 0 17 1-1 7 0 14-1 21 8 1 16 0 22 4 13 7 15 27 4 37-4 5-10 6-15 6-9 0-18 0-27 0m124 0c0-23 1-46 0-69 6 0 12 0 17 0 0 13 0 25 0 37 2-1 4-4 5-6 7-10 14-20 21-31 5 1 10 0 15 0-1 23 0 46 0 69-6 0-12 0-17 0 0-12 0-25-1-37-8 12-16 25-24 37-6 0-11 0-16 0z m-290-15c4 0 8 1 12-1 4-2 4-9 1-12-4-3-9-3-13-3 0 6 0 11 0 16z m66-1c11 3 22-6 22-16 1-10-7-20-17-20-11-1-20 10-18 21 0 7 6 14 13 15z m116 1c4 0 8 1 11-1 5-2 6-9 2-13-4-2-8-2-13-2 0 5 0 11 0 16z m66-1c9 3 19-4 21-13 3-10-4-22-15-23-11-1-21 9-20 20 0 7 6 15 14 16z"/>
<glyph unicode="&#47;" d="M417 261l-15 0 0 56 15 0c21 0 37-6 37-27 0-22-16-29-37-29m-165-40c-8 0-16 2-23 4l22 70 1 0 22-70c-7-3-14-4-22-4m161 142l-70 0 0-166-61 166-60 0-52-139c-6 35-42 47-70 56-19 6-39 15-39 25 0 8 11 16 32 15 14-1 26-2 51-14l24 42c-23 12-54 19-79 19l0 0c-30 0-55-10-70-26-11-11-17-25-17-40 0-22 8-37 24-49 14-10 32-17 48-22 19-6 35-11 35-22-1-4-2-8-5-11-5-5-12-7-22-7-20-1-35 3-58 16l-22-42c23-14 51-21 79-21l4 0c24 0 44 7 60 20l2 2-7-19 64 0 10 33c12-4 24-6 38-6 13 0 25 2 36 5l10-32 104 0 0 67 22 0c55 0 87 28 87 74 0 52-31 76-98 76"/>
<glyph unicode="&#58;" d="M457 344c-5-1-33-28-52-46-19 75-77 115-174 114-11 0-38-10-54-20-45-27-80-76-117-112-17-17-33-34-50-50-24-49 27-76 56-55 13 13 27 27 41 41 27-79 112-146 215-101 48 21 84 72 119 108 20 19 63 61 66 70 12 33-17 58-50 51z m-195-163c-52-9-96 48-78 100 11 35 35 49 64 52 107 2 111-137 14-152z"/>
<glyph unicode="&#59;" d="M233 510c-33-4-34-6-67-15-69-27-121-81-148-151-69-176 91-367 269-337 98 16 168 71 202 152 72 172-57 361-256 351z m49-453c-144-26-271 131-216 272 21 53 88 128 172 131 275 3 287-360 44-403z m-10 239c10 17 20 33 30 50-17 28-34 57-51 85-19-11-39-22-58-33-5-16 42-76 50-99 10-1 19-2 29-3z m13-8c4-9 8-17 12-26l58 0c16 28 32 56 49 84-22 12-43 25-64 37-18-32-37-64-55-95z m-54 3c-9 17-19 34-28 52l-99 0 0-74 112 0c4 10 12 14 15 22z m-16-37l-59 0c-16-29-32-58-48-87 20-12 41-23 62-35 19 32 37 65 56 97-5 8-9 13-11 25z m65-30c9-17 19-33 28-50l99 0 0 73-112 0c-4-10-9-15-15-23z m-42-3c-9-16-19-33-28-49 15-28 30-56 45-83 1-1 3-3 5-4 20 12 41 24 62 35-19 32-37 64-55 96-10 1-19 3-29 5z"/>
<glyph unicode="&#60;" d="M260 510c-104 0-189-85-189-189l0-270c0-27 22-49 49-49 28 0 50 22 50 49l0 104c27-15 58-24 90-24 105 0 190 85 190 190 0 104-85 189-190 189z m0-280c-50 0-90 41-90 91 0 50 40 90 90 90 50 0 91-40 91-90 0-50-41-91-91-91z"/>
<glyph unicode="&#61;" d="M407 331c-6 21 13 49 0 65 0 0-9 20-48 34-15 9-29 20-37 34-6 10-73 4-99-28-4 8-15 23-16 32-10-2-75-7-89-9-11-3-16-8-17-21 0-10-5-21-6-27 1-7 6-25 61-21 3-13 7-30 13-33-4-15-8-56 0-99 8-43 15-93-23-122-27 4-61-7-51-43 5-6 24-26 20-38 15 6 29 2 45-7 5 5 15 12 27 15 15 1 127-11 127 27 0 38-36 42-80 45 0 7-3 42 22 38 12-3 19-11 24-13 15-2 115 19 136 113 4 2 3 11 3 11 0 0 5 17-12 47z m-79-94c-5-7-50-5-63-6 0 10-24 32-32 43-5 11-4 18 0 24 11 9 11 22 10 36 0 14 0 18 4 34 54 49 95 1 100-53 3-62-19-78-19-78z"/>
<glyph unicode="&#62;" d="M320 403l0-100 35-22c1-1 3-1 4 0l151 101c0 12-11 21-17 21z m0-138l32-22c5-3 10 0 10 0-5-3 148 99 148 99l0-185c0-20-12-28-27-28l-163 0 0 136z m-166 46c-10 0-19-5-26-15-6-10-9-24-9-41 0-17 3-30 9-40 7-10 15-15 26-15 10 0 19 5 25 14 7 10 10 24 10 41 0 18-3 32-9 42-7 10-15 14-26 14z m-152 143l0-393 299-63 0 514z m201-263c-13-16-30-25-50-25-20 0-36 8-48 24-13 17-19 38-19 63 0 28 6 50 19 67 13 17 29 25 50 25 20 0 36-8 48-24 12-16 18-38 18-64 0-27-6-49-18-66z"/>
<glyph unicode="&#63;" d="M422 104c-9 0-14-6-15-16l29 0c0 10-5 16-14 16z m-78-1c-7 0-15-5-15-21 0-9 1-23 15-23 14 0 15 14 15 24 0 11-5 20-15 20z m-281-2c-14 0-17-13-17-22 0-9 3-22 17-22 14 0 17 13 17 22 0 9-3 22-17 22z m112-36c0-5 3-10 8-10 6 0 12 3 17 8l0 17c-17-2-25-7-25-15z m-175 447l0-512 512 0 0 512z m63-471c-19 0-35 12-35 38 0 26 16 37 35 37 19 0 35-11 35-37 0-26-16-38-35-38z m88 57l-1 0c-8 0-17-1-20-7l0-48-19 0 0 72 18 0 0-9c3 5 12 10 20 10 0 0 1 0 2 0z m68-55l-16 0-2 7c-7-5-15-8-24-8-13 0-21 9-21 21 0 16 15 25 45 28l0 4c0 5-4 8-11 8-7 0-13-3-18-8l-12 7c6 9 17 14 30 14 19 0 29-8 29-21 0 0 0-52 0-52z m79 0l-19 0 0 47c0 8-2 12-9 12-5 0-11-2-17-7l0-52-19 0 0 70 16 2 1-9c9 7 16 10 25 10 14 0 22-8 22-23z m79 4c0-11-1-31-35-31-14 0-27 5-29 17l18 3c1-3 3-7 14-7 9 0 14 5 14 16l0 9 0 0c-3-6-8-11-19-11-16 0-29 12-29 36 0 24 13 37 28 37 14 0 19-6 21-9l1 8 16 0 0-68z m77 29l-47 0c0-13 6-20 17-20 7 0 12 3 16 9l14-8c-6-10-17-15-32-15-21 0-33 14-33 37 0 24 12 37 33 37 20 0 33-13 33-36 0-1-1-3-1-4z m8 63l-7 0 0-21-4 0 0 21-8 0 0 3 19 0 0-3z m31-21l-4 0 0 20 0 0-8-20-3 0-7 20 0 0 0-20-4 0 0 24 6 0 7-18 7 18 6 0z"/>
<glyph unicode="&#64;" d="M215 380c7 0 10 3 11 10 0 29 1 58 2 87 14 5 39 7 53 0 8-9 6-65 6-89 8-11 19-9 25-3 6 10 4 22 0 109-30 16-42 17-79 16-9-5-18-9-28-13-11-23-5-74-5-107 3-7 5-8 15-10z m242 18c-49-21-97-42-145-63 0-6 0-11 7-19 52 14 100 38 138 49 14-12 17-27 22-48-55-24-111-48-167-71-7-14 105-163 119-183-11-17-22-25-43-33-41 57-81 113-122 170-41 3-104-135-137-165-1-2-1-3-2-5-19 6-33 11-41 28-10 19 108 142 114 183-17 20-135 65-167 71 7 23 13 36 23 53 40-17 89-41 134-51 2 3 6 5 8 8 1 4 1 8 2 13-39 20-99 46-152 60-26-27-43-47-41-98 49-22 99-43 148-64 2-2 5-3 7-5-37-53-74-107-111-160 3-32 55-86 91-63 36 51 73 103 109 154 2 1 3 2 5 3 24-35 86-143 119-160 30-8 97 32 87 69-38 52-75 105-112 157l-5 0c52 21 105 42 157 63 17 45-11 96-45 107z"/>
<glyph unicode="&#91;" d="M411 332l0 0 0 0z m-327-182l0 0 0 0z m-21 20l0 0 0 0z m0 0l0 0 0 0z m-10 21l0 0 0 0z m-1 3l0 0 0 0z m13-27l0 0 0 0 0 0z m312 201l0 0 0 0z m-100 103l1 0 0 0z m97-207c6 0 10-2 12-5 1 3 1 6 1 9 0 4-1 7-2 10 0 2-3 6-6 6-4-1-6-8-6-17 0-1 0-2 1-3z m81-63l0 0 0-1c0 0 0 0 0 0z m-3-56l0 0c-3-3-8-6-12-10-21-14-49-24-70-27l0 0 0 0c-15-3-30-3-43-1-8 0-14 2-20 4-6 3-11 6-13 9-5 5-6 11-6 16 1 3 1 6 2 8 0 0 1 1 1 1 1 3 5 9 12 8 1 0 1 0 2 0 0 0 1 0 2 0 1 0 3-1 5-1 0 0 0 0 0 0 20-2 39-2 57 1 26 4 50 13 71 28 1 0 2 1 3 2l12 17c-35-32-74-41-104-43-17-1-30 0-39 2 0 0 0 0 0 0-3 0-5 0-7 0 0 1-1 1-1 1-3 0-5 0-7-1-4-1-7-4-10-8-3-4-5-10-5-16 0-5 1-10 4-15 0 0 0 0 0-1 0 0 1-1 1-1 1-1 1-1 2-2 6-8 19-14 37-16 12-1 26-1 42 1 45 8 67 23 76 33 1 1 2 2 2 2 4 4 6 8 6 9l0 0c0 0 1 1 1 1z m-142 88c4 2 8 3 13 4 1 4 1 8 0 13-1 12-6 21-11 20-5 0-8-10-7-22 1-6 2-11 5-15z m-35 257l0 1 0-1z m18-35c1 1 2 1 3 2 2 1 3 1 4 2 1 0 1 0 1 0l0 0c0 0 1 1 1 1 0 0 0 0 0 0l-11 12 2-17z m-237-274l0 0 0 0z m6-10l0 0 0 0z m1-1l0 0 0 0z m413-29c0 1 0 2 0 3 0 0 0 1 0 1-1 1-1 3-1 4l0 0c-1 2-2 4-4 6-1 1-3 3-5 4l0 0c-2 1-4 1-6 2 0 0-1 0-1 0 2 10-1 17-2 20 0 0 0 0 0 1 2 2 4 4 6 6l0 1c2 2 3 4 3 6 1 1 1 3 1 4l0 0 0 0 0 0 0 1 0 0 0 0 0 0 0 0c0 1 0 1 0 1 0 1 0 1 0 2 0 3 0 7-2 11-1 2-3 4-4 6-2 2-4 4-7 5l0 0c0 0 0 0 0 0-6 8-12 14-17 19-3 2-5 4-8 6-2 1-4 3-5 3l0 0c-2 2-4 3-5 4-2 1-3 2-4 2-1 1-1 1-1 1l0 1c0 0 0 0 0 0 0 1-1 2-1 3 0 2 0 5 1 9 0 6 1 15 1 26 1 4 1 8 1 11-1 5-1 10-2 15l0 0c-1 1-1 2-1 3l0 0 0 0c-1 0-1 1-1 1l0 0c0 1 0 1-1 2l0 0c0 0 0 1 0 1l0 0 0 0c0 1-1 2-1 3l-1 1 0 0 0 1c-1 1-2 3-4 4 0 3-1 7-3 12-1 4-3 8-6 12-1 2-3 3-4 5l1 0c0 1 14 16 25 35 21 35 14 57 4 69l0 0 0 0c-9 10-21 16-36 18-32 4-67-11-76-16l-17 19 0 0c-2 2-3 3-5 5-2 1-4 2-6 3-4 2-8 3-13 3-9 2-20 1-31-2-18-5-37-14-57-26-21-12-42-28-62-46-25-23-46-47-61-70-7-12-14-23-18-33-5-11-8-21-9-30-1-7 0-13 1-19 0-3 1-5 2-7 2-3 4-6 6-9l0 0 18-18 2-2-1 0c0-1 0-1 0-2-1 0-1-1-1-1 0-1-1-1-1-1 0-1 0-2-1-2 0 0 0-1 0-1 0-1-1-1-1-2 0 0 0-1 0-1 0-1-1-1-1-2 0 0 0-1 0-1-1-1-1-2-1-2 0 0 0-1 0-1 0 0 0 0 0 0 0-1-1-2-1-2 0-1 0-1 0-2 0 0 0 0 0 0 0-1 0-1 0-2-1 0-1 0-1-1 0-1 0-1 0-2 0-1 0-1 0-1l0 0 0 0c0-1 0-1 0-2 0-1-1-2-1-3 0 0 0 0 0-1 0 0 0 0 0-1 0 0 0-1 0-1 0-1 0-1 0-2 0 0 0 0 0 0l0 0c0-1 0-1 0-2 0 0 0 0 0-1 0 0 0-1 0-1 1 0 1 0 1-1 0 0 0 0 0-1 0 0 0-1 0-1l0 0 0 0c0-1 0-1 0-1 0 0 0-1 0-1 0-1 0-1 0-2 0 0 0 0 0 0 1-1 1-1 1-1l0 0 0 0 0 0c0-1 0-1 0-2 0 0 0 0 0 0 0-1 0-1 0-1l0-1c1 0 1 0 1 0l0-1 0 0 0 0c0 0 0-1 0-1l0 0c0 0 0-1 0-1 0 0 1-1 1-1l0 0 0 0c0-1 0-1 0-1 0 0 0-1 0-1l0 0 0 0c1 0 1-1 1-2l0 0 0 0 0 0 0 0c0 0 0-1 0-1l1 0 0 0c0 0 0-1 0-1 0 0 0 0 0-1l0 0c0 0 1-1 1-1 0 0 0 0 0 0l0 0c0-1 0-1 1-2l0 0 0 0 0 0c0 0 0 0 0-1 0 0 0 0 0 0l1 0c0-1 0-1 0-2l0 0 0 0 0 0c0 0 1 0 1 0 0-1 0-1 0-1l0 0 0 0c0-1 1-1 1-1l0 0 0-1c0 0 0 0 0 0 1-1 1-1 1-1 0 0 0-1 1-1l0 0 0 0 0 0 0 0 0 0 0 0 0 0c0 0 0-1 0-1 0 0 1-1 1-1l0 0c0 0 0 0 1-1l0 0c0 0 0 0 0 0 0-1 1-1 1-1l0 0c0-1 0-1 1-1l0 0 0 0 0 0 0 0c0-1 0-1 1-1l0-1 0 0 0 0 0 0c0 0 0 0 1-1l0 0 0 0 0 0 0 0 0 0c0 0 1 0 1-1 0 0 0 0 0 0l0 0c0 0 1-1 1-1l0 0 0 0c1-1 1-1 2-1l0-1 0 0 0 0c0 0 0 0 0 0l0 0c1-1 2-1 2-2l0 0 1 0 0 0 0 0 0-1c1 0 1 0 2-1l0 0c0 0 0 0 0 0l0 0 0 0c1 0 1 0 1-1 0 0 1 0 1 0l0-1 1 0 0 0 0 0 0 0c1-1 1-1 2-1 0 0 0 0 0-1l1 0 0 0 0 0c1 0 1-1 2-1l0 0 0 0 1 0c0-1 1-1 2-2l0 0 0 0 1 0c0 0 0 0 1 0 0-1 0-1 0-1 1 0 1 0 1 0l0 0 0 0 0 0c1 0 1-1 2-1l0 0c0 0 1 0 1 0l0 0 1 0c0-1 0-1 0-1l0 0c1 0 2 0 2 0l0 0 0 0 0 0c1-1 2-1 3-1l0 0 1 0 0 0c0-1 1-1 2-1l0 0 1 0 0 0c1 0 1 0 2-1l1 0 0 0c1 0 1 0 2 0 0 0 0 0 0-1l0 0c1-3 3-7 4-11 24-65 89-115 163-124 74-10 153 40 186 106 1 3 2 5 3 8 4 3 6 6 8 10 2 4 2 9 2 12z m-329 188c1 1 2 2 3 4-1-2-2-2-2-2 0 0 5 5 13 14 4 5 9 10 15 16 11 12 23 23 35 34 11 11 23 21 36 30 1 1 1 1 2 1 4 4 9 7 14 11 3 2 6 4 9 6l-34 39-1 0 12 4 29-15-3 20 11 2 25-29c0 0 1 0 1 1 2 1 4 1 6 2 1 1 2 1 4 2 0 0 1 1 2 1 14 5 39 13 60 11 4-1 9-2 13-4 0 0 1 0 1 0l0 0-1 0 0 0 0 0c0 0 0 0-1 0-3 1-7 1-11 1-1 0-3 0-4 0-10 0-21-2-33-6-7-2-14-5-21-8-2-1-3-1-4-2-2-1-3-1-5-2 0 0 0 0-1 0 0 0 0-1 0-1-1 0-1 0-1 0-2-1-3-1-4-2-1 0-1 0-1 0-1-1-1-1-1-1-1 0-2-1-4-1l0-1c0 0 0 0 0 0 0 0-1 0-1 0l0 0c0 0-1 0-1-1 0 0-1 0-1 0-1-1-1-1-2-1 0 0 0 0 0 0-3-2-6-3-8-4l0 0c-1-1-2-1-3-2-1-1-2-1-4-2 0 0-1-1-1-1-2-1-3-1-4-2-1-1-2-1-3-2-1 0-1-1-2-1-1-1-2-1-3-2-2-1-4-3-6-4-6-4-13-8-19-13l0 0c-14-10-28-21-41-32-22-19-42-39-60-58z m317-189l0 0c0-3-1-6-3-9 0 0 0-1 0-1-2-1-3-3-5-4l0-1c0-1-1-2-1-3l0 0c0 0-1-1-1-1 0-1-1-2-1-2 0-1 0-1-1-2 0-1-1-2-1-3-1 0-1-1-1-2-1 0-1-1-1-1-1-1-1-2-2-2 0-1 0-1 0-1-1-2-2-3-3-4 0-1 0-1-1-1l0 0c-1-1-1-2-2-3l0 0c-3-4-6-8-10-12-2-3-5-5-8-8 0 0-1 0-1 0l0 0 0 0c-3-3-6-5-9-8-2-1-4-2-6-3l0-1c-3-1-5-3-8-4l0 0c-4-2-8-4-12-6-6-3-12-5-18-6-34-10-62-4-82 10l0 0 6-10c-5 2-18 19-18 19-1-1 3-10 3-10-5 6-10 15-13 19 0 1-1 2-1 3-1-9 4-16 4-16-14 15-17 36-18 43-1 4-1 8-2 10 0 1 0 2-1 3-4-9-1-18-1-18-3 8-5 15-5 22-1 4-1 8 0 12 0 6 1 12 3 17-2-5-3-11-3-17-1 1-1 1-1 2 0 1 0 2 0 3 0 6 1 10 1 10l0 0c-1 0-1-1-2-1 0-1 0-1 0-1 0-1 0-1-1-2l0 0c0 0 0-1 0-1l0 0 0-1c0 0-1 0-1 0 0-1 0-1 0-2 0 0 0 0 0 0 0 0 0-1 0-1l0-1-1 0 0 0c0 0 0-1 0-1 0 0 0 0 0 0 0-1 0-1 0-2 0 0 0 0 0 0 0 0 0 0 0-1 0 0 0 0 0 0 0 0 0-1 0-1 0 0 0 0 0 0 0 0 0 0 0-1 0 0 0 0 0 0 0 0 0 0 0 0 0 0 0 0 0 0 0-1 0-1 0-1 0 0 0 0 0 0 0 0 0 0 0 0-4 15 5 35 5 35l0 0c-1-1-1-1-2-1 0-1 0-1 0-1 0 0-1-1-1-1 0 0 0 0 0 0-1-1-1-1-2-2 0 0 0-1-1-1l0 0 0-1c0 0 0 0-1 0 0-1 0-2-1-3 0 0 0 0 0 0l0 0c0 0 0-1 0-1l-1 0c0-1 0-1 0-2l0 0c0 0-1-1-1-1l0 0c0-1 0-1 0-1l0-1c0 0-1 0-1-1l0 0c0 0 0 0 0-1l0 0c0 0 0 0 0-1l0 0c0 0 0 0 0 0l0 0c0 0 0-1 0-1l0 0 0 0c-1 10 1 18 5 24 0 1 1 2 1 3 1 0 2 1 2 2 0 0 0 0 1 1 0 0 0 1 1 1 0 0 0 1 0 1 1 0 1 0 1 0 1 2 2 3 4 4 0 1 1 1 2 2 6 5 14 9 20 12 2 1 5 1 7 2 1 1 3 1 5 2 1 0 1 0 2 0 0 0 1 1 1 1-5 1-8 2-12 4-10 5-24 13-32 27-2 4-4 8-5 13l0 0c0 0 0 1-1 2 0 0 0 1 0 2 0 1-1 3-1 5 0 1 0 1 0 2 0 0 0 0 0 1 0 2 0 5 0 7 0 1 0 2 0 3 0 2 1 3 1 5 0 2 1 3 1 5 0 0 0 0 0 0 1 2 1 3 2 5 0 1 0 1 1 2 1 3 2 6 4 8 1 3 3 5 4 8 5 7 12 12 19 17 1 0 2 1 3 1 1 0 1 0 1 0 1 1 1 1 2 1 0 0 1 0 1 0 1 0 1 1 2 1 0 0 1 0 1 0 1 0 1 0 2 0 0 0 1 0 1 0l0 1c1 0 1 0 2 0 0 0 0 0 1 0 1 0 1 0 2 0 1 0 1 0 1 0 1 0 1 0 2 0 0 0 0 0 1 0 0 0 0 0 0 0 1 0 1 0 2 0 0 0 0 0 1 0 0 0 1 0 1 0 0 0 0 0 0 0 1 0 1 0 1 0 1 0 2 0 2 0l0 0c1 0 1 0 1-1 1 0 1 0 2 0 0 0 0 0 1 0 1 0 1 0 2 0 1 0 1-1 1-1l0 0 1 0c0 0 0 0 1 0 0 0 1 0 1 0 0 0 1 0 1 0l0 0c0 0 1 0 1-1 2 0 4 0 5-1 2 0 3 0 4-1 2 0 5-1 8-1 0-1 0-1 1-1 1 0 2 0 3 0 3-1 6-1 9-1 2 0 4 0 5 1 2 0 3 0 4 0l0 0c1 0 2 1 3 1l0 0c1 1 2 1 3 2l1 0c1 0 1 1 2 1l1 0c1 1 2 1 2 2l1 0c1 1 2 1 2 2l1 0c1 1 2 1 2 2 1 1 2 1 3 2l0 0 0 0 0 0c1 0 1 1 2 1l0 0c1 1 1 1 2 1l0 1c0 0 1 0 1 0l1 1c0 0 1 0 1 0l0 1c1 0 1 0 2 0l0 1c1 0 1 0 1 0l1 0c1 1 2 1 3 2l1 0c0 0 0 0 1 0 0 0 0 0 0 0 1 0 1 0 1 0l1 0c0 0 0 0 0 0 1 0 1 0 1 0 1 0 1 0 1 0 0 0 1 0 1 0 0 0 0 0 1 0 0 0 0 0 1 0 0 0 0 0 0 0 1 0 1 0 2 0 0 0 0-1 0-1 1 0 1 0 1 0 1 0 1 0 1 0 1-1 1-1 2-1 0-1 1-1 1-2l0 0c1 0 1-1 2-1l0-1c0 0 1-1 1-1l0 0 0-1c1 0 1-1 2-2l0 0c0-1 1-2 1-2l0 0 0 0 0-1 0 0 0 0c1-1 1-1 1-2l0 0 0 0 0 0c0-1 0-1 0-1 0 0 0 0 1-1 0 0 0-1 0-1l0 0c0 0 0 0 0 0l0 0c0-1 0-1 0-2 0 0 1-1 1-1 0-1 0-1 0-2 0-1 0-2 0-3 0 0 0 0 0-1 0-1 1-2 1-3l0 0 0 0c0-2 0-3 0-4 0-1 0-1 0-1 0-2 0-3 0-5-1-11-2-20-2-27-1-18 0-20 11-27 0 0 2 0 4-2 5-4 18-12 27-26 0 0 1-1 1-1l0 0c1-1 1-1 2-1 0-1 1-1 1-1 1-1 1-1 2-1 0-1 1-1 2-2 3-4 3-9 3-11l0 0 0-1c-35-32-74-41-104-43-17-1-30 0-39 2 0 0 0 0 0 0-3 0-5 0-7 0 0 1-1 1-1 1-3 0-5 0-7-1-4-1-7-4-10-8-3-4-5-10-5-16 0-5 1-10 4-15 0 0 0 0 0-1 0 0 1-1 1-1 1-1 1-1 2-2 6-8 19-14 37-16 12-1 26-1 42 1 45 8 67 23 76 33 1 1 2 2 2 2 4 4 6 8 6 9l0 0c0 0 1 1 1 1l-1-1 0 0c-3-3-8-6-12-10-21-14-49-24-70-27l0 0c-15-3-30-3-43-1-8 0-14 2-20 4-5 4-10 10-10 20l1 8 0 0c3 11 15 13 15 13l-1 0c20-2 39-2 57 1 26 4 50 13 71 28 1 0 2 1 3 2 1 0 1-1 1-1 2-4 4-9 3-16 0-1 0-2-1-3 0-1 0-2 0-3 0 0 1-1 2-3 1-2 3-4 4-8 0 1 0 1 0 1l0 0c0 0 1 0 1 0 1 0 2 0 3 0 2 0 3-1 4-1 0 0 0-1 1-1 0 0 1 0 1-1 0 0 0 0 1-1l0 0c0 0 0 0 0 0l0 0c2-3 1-6 1-6z m-182 309c0 0 1 0 1 0 0 0 0 0 0 1 1 0 1 0 1 0 2 1 5 3 7 4l-24 12 15-17z"/>
<glyph unicode="&#93;" d="M141 257c-1 22-17 35-37 35l-1 0c-23 0-36-18-36-38 0-24 15-38 36-38 22 0 37 16 38 36z m-38 55c15 0 30-6 41-17l0 0c0 5 3 9 8 9l1 0c8 0 9-7 9-9l0-80c0-6 6-8 9-5 13 13 28 68-8 99-34 30-79 25-103 9-26-18-42-57-26-94 17-40 67-52 96-40 15 6 22-14 6-20-23-10-88-9-118 43-21 36-20 98 35 131 41 25 96 18 129-17 35-36 33-104-1-130-15-12-38 0-38 17l0 6c-10-11-25-17-40-17-31 0-58 27-58 57 0 31 27 58 58 58m389 9c-8 0-13-7-13-13l0-58c0-23-19-45-45-45-22 0-45 19-45 44l0 59c0 6-4 13-13 13-7 0-13-6-13-13l0-58c0-38 33-71 71-71 40 0 71 35 71 71l0 58c0 6-5 13-13 13m-158 0c-39-1-71-34-71-71l0-58c0-7 6-13 13-13 7 0 13 6 13 13l0 58c0 21 19 44 44 44 9 0 14 7 14 14 0 5-4 13-13 13m-90-131c0-5-6-11-14-11-8 0-13 6-13 11l0 10c0 5 5 11 13 11 9 0 14-6 14-12z"/>
<glyph unicode="&#95;" d="M4 163c196 50 327 87 502 120 5 1 8 3 0 3l-303-5c1-13-12-30-40-47-14-9-46-26-160-69-1 0 0-2 1-2m320 68l-35-44c-5-6-14-17-27-17l-210-7c-1 0-1 1-1 1l272 69c1 0 1-1 1-2m47 113c27-1 26-18 13-34-5-7-7-10-12-16l-174-2c-24 22-69 39-97 49-5 2-2 2 2 2 27 0 253 1 268 1"/>
<glyph unicode="&#94;" d="M465 174c-55 1-109 3-163 5 51-38 122-88 163-5z m-262 5c-52-2-104-4-156-5 47-84 110-34 163 5-2 0-4 0-7 0z m4 16c-65 43-134 80-202 117-19-57 25-120 86-121 40 0 81-1 122 0-2 1-4 2-6 4z m304 92c0 9-1 17-4 25-71-38-142-76-208-121 75 0 217-19 212 96 0 1 0 0 0 0z m-289-77c-38 83-86 162-143 233-21-21-41-48-42-78-2-38 28-63 57-83 18-13 37-25 56-36 15-8 68-29 72-36 0 0 0 0 0 0z m78 3c59 30 182 77 174 155-2 29-21 55-41 75-57-71-106-152-144-235 3 1 7 3 11 5 1 0 0 0 0 0z m-10 35c31 48 65 100 79 156 11 45-4 91-55 103-19 4-22 4-29-12-6-15-10-31-13-46-5-27-8-56-8-84-2-49 1-97 6-146 7 10 13 20 20 29 0 1 0 0 0 0z m-41 95c0 37-3 74-10 111-7 33-9 62-47 51-127-34 4-221 50-286 4 41 7 83 7 124z"/>
<glyph unicode="&#96;" d="M509 291l-54 36 22 60-62 11-5 64-64-14-25 56-53-34-46 38-35-54-59 26-13-64-64-3 18-61-59-29 36-51-44-44 54-37-22-59 64-13 3-64 32 7 44 65c0 0-91 120 34 203 28 18 115 23 171 4 56-18 89-54 89-54l-50-78 34-30 48 22-37 51z m-147-98c-55 8-88 15-91 28-2 14 14 26 48 24 34-1 75-32 75-32l42 61c0 0-53 49-144 43-75-5-119-41-121-112-2-70 85-85 118-89 33-4 50-10 53-21 2-10-9-29-66-24-56 6-80 35-80 35l-39-62c0 0 49-45 161-43 66 1 116 35 127 94 10 50-27 89-83 98z"/>
<glyph unicode="&#123;" d="M396 58l0 49 98 0 0-98-98 0z m-372 26c-1 2 0 3 0 2 1 0 1-1 0-3 0-1 0 0 0 1z m0 17c0 2 0 3 0 2 1-1 1-2 0-3 0-2 0-1 0 1z m10 11c0 2 0 3 1 2 0 0 0-2 0-3-1-1-1 0-1 1z m10 239l0 123 227 0 0-247-194 0 4 6c20 34 46 72 65 95l13 16-4 2c-2 2-4 3-4 3-3 0-33-39-49-63-10-15-25-40-30-52l-4-7-24 0 0 124z m45-349c-16 3-32 12-43 24-8 8-18 27-20 40-3 12-3 38-1 53 4 27 14 64 26 93 6 14 7 15 11 15 2 0 4-1 4-1 0 0-4-10-9-22-18-46-26-80-24-112 1-29 7-44 24-56 15-12 22-14 46-14 20 0 22 0 34 5 7 3 18 7 24 10 12 6 39 24 52 35 80 64 170 178 210 266 17 39 25 69 25 96 0 25-6 39-22 53-11 10-21 14-39 15l-15 1 1 4 0 5 16 0c26 0 41-7 56-23 15-17 22-34 24-61 2-45-15-106-48-163-48-83-122-168-189-216-51-36-107-54-143-47z"/>
<glyph unicode="&#124;" d="M364 363c17 0 34-1 47-3 7-1 13-3 19-5 5-2 11-6 13-13 5-14-7-26-15-33-10-8-24-16-38-23-17-8-35-15-46-19 6-17 18-54 29-91 8-25 15-51 18-72 2-10 3-19 2-27 0-6-2-17-11-21-4-2-9-1-12 0-3 1-6 2-8 4-5 4-11 10-17 16-11 13-24 30-37 48-8 11-15 22-22 32l-7-100-60-54-11 135c-60-58-131-117-140-103-16 24 130 234 130 234-12-1-126 1-124 26 1 17 72 37 118 46l-13 172 130-27-8-124c18 1 46 3 63 2z m-64-11c-3 12-22 91-39 86-20-6-38-93-38-93-7 0-18-2-31-5l16-203c24 23 46 46 61 64 0 0 8-11 19-28 27-42 76-114 90-108 24 12-47 208-47 208 0 0 112 38 102 66-7 22-133 12-133 12z"/>
<glyph unicode="&#125;" d="M295 341c0 0 29 137 29 138l-185 0c0-1-39-180-39-181l46 0c0 1 30 138 30 138l93 0c0 0-29-137-29-138l138 0-18-86-138 0c0 0-28-129-28-129l-104 0c0 0-9-42-9-43l150 0c0 1 28 129 28 129l137 0c1 1 37 171 37 172z"/>
<glyph unicode="&#126;" d="M357 273l101 0 0-101-101 0z m-64-161c0-32 5-53 14-63 8-8 22-13 40-15 6 0 16 0 29 0l0-28-242 0 0 28c19 0 33 1 43 2 19 4 30 15 35 33 3 10 4 24 4 43l0 365c-41-1-73-14-96-41-23-25-36-63-41-114l-26 4 5 175 394 0 5-175-26-4c-5 51-19 89-41 114-23 27-56 40-97 41z m-240 161l101 0 0-101-101 0z"/>
<glyph unicode="&#92;" d="M6 127c11 10 17 9 28 13 2 2 4 3 6 4 15 0 12 3 22 6 20-1 25 6 41 7 9 0 26 4 34 5 0 0 11 1 21 1 7 0 20 2 24 2 7 0 16 0 23-1 10 2 17 2 26 2 11-1 21-1 31-1 12-1 19-2 31-2 12 0 20-4 27-4 6 1 14-2 18-2 4 0 12-4 19-5 12 0 17-1 29-3 4-1 15-4 19-4 4 0 14-5 21-6 7 2 19-4 27-5 29-4 27-8 39-10 4 0 15 0 14-14-1-5-16-4-24-4-3 0-1 3-5 3-6 0-5 1-10 6-12 4-22 3-36 8-5 2-12 3-22 6-19 3-29 5-47 8-11 3-21 4-26 5-18 3-27 3-43 5-14 1-26 3-38 3-3 1-13 0-17 1-20 0-29-1-44-1-17 0-32 0-51-3-5 0-10-2-15-2-5-2-14-3-21-3-5 0-11-1-19-4-19-1-12-8-22-11-15-1-24-9-30-9-8 0-23-7-28-2 0 4-3 8-2 11m145 145c-1 0-2-2-3-2-7-3-4-21-5-27-1-6-2-12-2-18-3-23-5-33-5-54 1-4 0-7 1-9 9 1 16 1 28 2-1 1-1 3-1 7-1 6 1 16 2 29 1 5 2 9 3 15 2 10 1 18 2 25 1 4 1 9 0 13-1 9-8 8-10 10-2 5-6 9-10 9z m61 0c-6-6-3-21-3-28 0-12-3-35-1-56 2-4 2-7 3-11 2-7 14-5 13-11 0-2 6-1 13-1 1 7 1 8 0 10-2 2-3 4-3 6-1 10-1 38-1 37 0 9 0 16 0 26 0 0 2 2 2 4 0 3-1 5-1 8 2 2 3 9 3 13-1 1-1 2-2 4-4 4-10 4-14-1-2 0-8 1-9 0 0 0 0 0 0 0m80 11c-9-2-4-16-4-27-2-12-1-16 1-17 0-8-1-17-1-31 1-3 2-7 1-12 4-10 3-12 2-20 2-3 6-8 8-8 4 0 8 3 11 5 10 5 6 13 5 20 0 5 0 10 0 10 0 0 0 29-2 43 0 8 2 12 0 23 0 2-4 3-8 7-3 3-4 6-7 8-3 2-5 0-6-1m66-16c8-12 5-17 5-26 1-16 0-22 0-32 0-6 1-27 1-28 0-2 3-5 3-8 0-8-1-13 1-18 1-4 4-3 5-4 4 0 8 2 11 4 3 12 3 22 3 36 0 11 1 42 0 45-2 3-2 6-1 9-1 4-1 9-2 13 1 4 0 10-1 13-2 2-4 4-6 6-2 3-1 4-3 6-7 2-9 1-12 0-2-3-3-5-4-6-1-5-2-7 0-10m-85 136c-6 1-7-26-9-27-1 1-4 7-4 12 0 1 1 1 2 2-10-2-18-20-12-24 5-2 7-5 11-5 4-1 5 1 11 4 1-1 1-2 1-2 2 0 2-1 4 2 7-1 13 5 16 7-1 2-5 2-6 5 1 1 2 2 2 5-3 3-2 8-4 8-3-9-7-6-6-6 0-1 0 3-1 4 0 6 1 3 0 8-1 4-3 5-5 7m90-47c10 0 23-5 30-5 6 0 5-7 5-7 1-8 0-8-4-10 1-2-1-2 1-2 12-3 11 0 17-3 7-1 6-5 7-6 0-3 3-10-7-11 0-3-1-8-3-10-1-4-14-1-22 1-5 0-11-1-16-1-4 4-12 2-17 2-4 0-20-2-31 0-13-1-14-1-27-2-3 0-17 0-20 0-4 0-10-1-13-1-8-2-18-5-28-3-7-2-12-4-18-4-10-3-8 0-18-3-3-1-19-5-23-5-7 1-7-2-17-5-1 0-9-3-14-6-7-3-16-1-15 12 7 7 7 4 10 6 7 0 13 5 16 5 4 0 7 1 7 2-2 2-2 1-5 1-4 0-8-3-12-4-4-1-10-2-14-2-3-2-8-3-12-1-1 2-2 5-3 7 0 7 14 10 14 10 2 1 16 5 16 5 4 1 18 5 22 5 5 0 9-3 18 0 10 2 18 4 28 4 12 2 21 3 33 4 15 1 34 2 52 3 9 0 35 0 46 0 4 2 31 1 37 1 1 1 0 1-1 4-5 1-31 1-31 3-6 1-12 1-15 1-7 1-14 3-28 0-4 3-12 1-15 2-10 0-13-2-20-1-3 0-8 0-11-1-16 2-19 0-22-1-24-1-38-4-53-6-9-3-16-6-28-7-5 0-12-7-23-4-3 0-5 8-4 11 0 5 9 5 12 6 13 5 30 7 44 9 7 1 25 3 36 6 8 0 13 0 20 1 10 2 24 0 31 2 9 0 23 0 30 1 13-1 28-1 39-2z"/>
<glyph unicode="&#57344;" d="M288 439c0 0 1 0 1 1 4 14-4 29-18 34-14 4-28-3-33-17 0 0 0-1-1-2 0 0 0 0 0 0l0 0c-9-25-86-227-86-227l-1 0-92 231c0 0 0 0 0 0l-1 3c-6 13-22 20-36 14-14-5-22-21-17-35 11-28 117-284 117-284l-7-16c-12-31-25-52-60-52-3 0-15 0-15 0-12 1-22-6-25-18-4-12 4-26 17-29 9-2 18-3 27-3 64 0 85 37 106 91 0 0 117 291 122 303 1 2 2 4 2 6z m144-286c-2 0-4 0-7 1l-3 2c-8 4-103 68-104 85 0 2 1 4 3 5 2 1 4 2 8 2 22 0 83-29 119-49 11-8 13-23 6-34-5-8-13-12-22-12m-103 195c-4 0-6 1-8 2-2 1-3 3-3 5 1 17 96 81 104 86l3 1c3 1 5 1 7 1 9 0 17-4 22-12 7-11 5-25-5-34-37-20-98-49-120-49m156-74l0 0c-1 0-124 0-134 20-1 2-1 4 1 6 9 14 122 25 131 25l3-1c12-2 20-12 21-23 1-13-8-25-21-27z"/>
<glyph unicode="&#99;" d="M473 146c1 5 1 4 0 10 3-2 7-4 11-5 2 6 3 13 5 20-9 4-4 9-10 14-5 2-10 4-15 6-15 20-15 49-11 71-3 5-6 10-10 14l0 2c25 4 60 15 49 49-5 14-17 21-21 38 1 2 2 4 3 6 2 3 5 6 7 8l0 1c-33-3-29-28-24-54l-6-7c-10 0-20 0-31-1-26 20-40 44-50 80 9 15 13 28 6 47-2 2-4 3-6 5 0-13-5-17-13-21-13 20-20 42-41 54-49 30-145-22-171-48-9-9-16-30-27-37-11-2-23-5-34-7-12-8-24-16-35-23-24 8-33 36-9 50 7 5 53 28 58 30 9-2 18-3 27-4 29 5 43 33 26 60-2 0-4 0-6 1 1-2 2-4 3-5 0-4 0-7 1-10-12-12-23-10-41-17-11-5-11-20-21-27-22-14-57-12-73-31-23-28 2-55 27-63 10-15-4-48 4-71 10-34 34-54 53-80-18-26 19-59 38-69 0-15 2-26 5-37 21-1 35 0 50 6 1 2 1 4 2 6-3 6-34 51-38 54-9 7-18 6-24 16 10 13 15 21 14 46 10-5 18-11 32-13 0-1 1-1 1-2-6-3-8-8-10-14 0-13 44-49 53-68 10-19-3-39 17-52 18-12 59-8 67 9 9 21-13 44-22 54 26 0 51 2 69 10 5 14 2 26-4 38 8-2 16-4 24-5 5-8 6-21 4-33 17-9 44-31 71-23 1-3 3-7 4-10-6-4-13-1-20 1 1-8 3-17 5-25l21 0c2-5 3-11 4-16 10 3 20 5 29 7-2 4-5 9-7 14 34 3 22 50-10 51z m-162 27c-12-7-26 7-37 12-7-5-12-12-12-24-9 4-12 9-26 9-3 6-3 7-2 16 25 0 52 2 72 9 4-5 5-13 8-20-1-1-2-1-3-2z m167-58c-2 0-3-1-4-1-1 4-2 8-3 12 2 0 4 0 5-1 2-1 4-3 5-5-1-2-2-3-3-5z"/>
<glyph unicode="&#102;" d="M496 309c2-13 3-28 3-42 0-127-101-229-225-232 0 0 68 30 143 129 73 97 79 145 79 145z m-46 172c-22 24-82-19-82-19 27-17 51-40 69-68 0 0 33 65 13 87z m23 24c24-19 24-60-8-143-39-105-133-207-179-255-53-54-155-127-197-101-39 23-12 94-9 102 21 64 78 147 86 203 8 60-12 76-28 84-10 5-58 20-98-61-40-81-4-168-4-168-15 30-23 64-23 101 0 128 103 232 231 232 40 0 77-10 110-28 0 0 85 61 119 34z"/>
<glyph unicode="&#103;" d="M256 512c-141 0-256-115-256-256 0-141 115-256 256-256 141 0 256 115 256 256 0 141-115 256-256 256z m-12-425c0-3-2-4-5-3-4 2-7 5-11 8-31 24-63 49-95 73-3 3-7 6-10 9-7 4-9 10-10 18-4 24-7 49-11 73-4 25-7 50-11 75 0 4-1 7 0 11 0 3 1 5 5 4 2-1 5-2 7-4 16-7 32-15 48-22 13-6 26-12 39-18 13-7 26-13 39-19 8-4 12-10 12-18 1-12 1-23 1-34 1-15 1-30 1-45 0-10 0-20 0-30 1-11 1-22 1-33 0-10 0-20 0-31 0-2 1-5 1-7 0-3 0-5-1-7z m7 224c-2 0-4 0-6 1-44 19-89 37-133 56-2 1-4 2-6 3-1 1-1 2 0 3 3 1 5 2 8 2 44 12 88 24 133 35 5 2 11 2 16 1 0 0 0 0 0 0 1-1 1-1 2 0 0-1 0-1 0-1 1 0 1 0 2 0 0 0 0 0 0 0 1 0 1-1 2 0 0 0 0-1 0 0 4-2 7-3 11-4 39-10 79-20 118-30 2-1 5-2 7-3 1 0 2-1 2-2 0-1-1-2-2-2-4-2-9-4-13-6-40-16-79-33-118-49-8-3-15-5-23-4z m168 17c-3-21-6-42-9-63-3-22-6-44-9-66-1-4-1-7-2-11-1-6-4-10-9-14-20-16-40-31-60-47-17-13-34-26-51-39-2-2-4-3-6-4-3-1-4 0-4 2-1 2-1 4-1 6 0 23 1 44 1 66 0 6 0 16 0 16 0 0 0 0 0 0 0 26 1 47 1 69 0 9 0 19 1 28 1 9 4 17 13 21 11 5 22 11 34 16 8 4 16 8 23 12 9 4 18 8 27 12 11 5 21 10 32 15 5 3 11 6 16 7 4 2 6 1 6-4 0-7-1-15-3-22z"/>
<glyph unicode="&#105;" d="M353 507c15 0 27-5 37-15 10-10 14-22 14-36 0 0 0-400 0-400 0-13-4-25-14-36-10-10-22-15-37-15 0 0-194 0-194 0-14 0-26 5-36 15-10 11-15 23-15 36 0 0 0 400 0 400 0 14 5 26 15 36 10 10 22 15 36 15 0 0 194 0 194 0m-97-481c10 0 19 2 26 7 6 5 10 11 10 18 0 8-4 14-10 19-7 4-16 7-26 7-10 0-18-3-25-8-7-5-11-11-11-18 0-7 4-13 11-18 7-5 15-7 25-7m108 76c0 0 0 338 0 338 0 0-216 0-216 0 0 0 0-338 0-338 0 0 216 0 216 0"/>
<glyph unicode="&#104;" d="M0 320c0 0 104-47 104-129 0-146 152-100 152-100 0 0 152-42 152 92 0 93 104 137 104 137-252-16-256-213-256-213 0 0 2 194-256 213z m153 66c0 0 35-27 65-91 30-64 38-127 38-127 0 0 9 71 35 122 26 51 69 96 69 96l-104-38z m131 13c0-15-12-27-27-27-15 0-28 12-28 27 0 15 13 28 28 28 15 0 27-13 27-28z"/>
</font>
</defs>
</svg>
